<svg xmlns="http://www.w3.org/2000/svg" xmlns:xlink="http://www.w3.org/1999/xlink" width="100" zoomAndPan="magnify" viewBox="0 0 75 74.999997" height="100" preserveAspectRatio="xMidYMid meet" version="1.0"><defs><g/><clipPath id="9277fa3c1e"><path d="M 24 30 L 52 30 L 52 44.503906 L 24 44.503906 Z M 24 30 " clip-rule="nonzero"/></clipPath><clipPath id="f2c770ef48"><path d="M 31 17 L 69.816406 17 L 69.816406 31 L 31 31 Z M 31 17 " clip-rule="nonzero"/></clipPath><clipPath id="da59452bf7"><path d="M 4.566406 17 L 47 17 L 47 35 L 4.566406 35 Z M 4.566406 17 " clip-rule="nonzero"/></clipPath></defs><rect x="-7.5" width="90" fill="#ffffff" y="-7.5" height="89.999996" fill-opacity="1"/><rect x="-7.5" width="90" fill="#000000" y="-7.5" height="89.999996" fill-opacity="1"/><path fill="#ffffff" d="M 25.5 20.867188 L 25.5 18.007812 C 27.4375 17.183594 29.433594 16.558594 31.496094 16.140625 C 33.558594 15.71875 35.640625 15.507812 37.742188 15.507812 C 39.847656 15.507812 41.929688 15.71875 43.992188 16.140625 C 46.050781 16.558594 48.050781 17.183594 49.988281 18.007812 L 49.988281 20.484375 L 58.296875 18.957031 L 52.976562 18.984375 L 52.976562 16.066406 L 51.804688 15.535156 C 49.59375 14.539062 47.304688 13.789062 44.933594 13.277344 C 42.5625 12.769531 40.164062 12.511719 37.738281 12.511719 C 35.3125 12.511719 32.914062 12.769531 30.542969 13.277344 C 28.171875 13.789062 25.878906 14.539062 23.667969 15.535156 L 22.496094 16.066406 L 22.496094 18.984375 L 16.394531 18.957031 Z M 25.5 20.867188 " fill-opacity="1" fill-rule="nonzero"/><g clip-path="url(#9277fa3c1e)"><path fill="#ffffff" d="M 48.082031 30.457031 C 47.804688 31.0625 47.496094 31.65625 47.164062 32.234375 C 45.285156 35.492188 42.71875 38.0625 39.460938 39.945312 L 37.742188 40.933594 L 36.027344 39.945312 C 32.769531 38.0625 30.199219 35.492188 28.316406 32.234375 L 28.164062 31.96875 C 27.675781 31.503906 27.226562 31 26.820312 30.464844 L 24.152344 30.464844 C 25.144531 33.007812 26.53125 35.3125 28.308594 37.382812 C 30.085938 39.453125 32.160156 41.171875 34.523438 42.535156 L 37.742188 44.390625 L 40.964844 42.535156 C 43.332031 41.171875 45.40625 39.453125 47.183594 37.378906 C 48.964844 35.308594 50.351562 33 51.347656 30.457031 Z M 48.082031 30.457031 " fill-opacity="1" fill-rule="nonzero"/></g><g clip-path="url(#f2c770ef48)"><path fill="#da880a" d="M 65.511719 22.863281 C 67.378906 22.753906 70.074219 17.789062 70.074219 17.789062 L 46.664062 22.085938 C 45.796875 22.246094 44.949219 22.167969 44.125 21.847656 L 39.128906 19.925781 C 38.671875 19.75 38.199219 19.695312 37.714844 19.761719 C 37.230469 19.828125 36.792969 20.007812 36.398438 20.304688 L 31.824219 23.738281 C 31.738281 23.804688 31.691406 23.894531 31.695312 24.003906 C 31.691406 24.113281 31.738281 24.199219 31.824219 24.265625 C 32.25 24.582031 32.730469 24.742188 33.265625 24.742188 C 33.796875 24.742188 34.277344 24.582031 34.703125 24.265625 L 36.574219 22.859375 C 36.800781 22.691406 37.046875 22.5625 37.316406 22.476562 C 37.582031 22.386719 37.859375 22.34375 38.140625 22.34375 C 38.421875 22.34375 38.695312 22.386719 38.964844 22.476562 C 39.230469 22.5625 39.480469 22.691406 39.703125 22.859375 L 46.351562 27.863281 C 46.785156 28.179688 47.050781 28.605469 47.144531 29.136719 L 47.144531 29.152344 C 47.1875 29.378906 47.324219 29.488281 47.554688 29.484375 C 47.554688 29.484375 55.363281 29.84375 57.917969 30.125 C 59.15625 30.265625 61.785156 27.765625 61.785156 27.765625 L 55.230469 26.644531 C 57.78125 26.835938 61.078125 27.058594 62.796875 27.0625 C 64.273438 27.0625 67.019531 23.636719 67.019531 23.636719 L 51.410156 23.738281 C 51.410156 23.738281 61.640625 23.097656 65.511719 22.863281 Z M 65.511719 22.863281 " fill-opacity="1" fill-rule="nonzero"/></g><g clip-path="url(#da59452bf7)"><path fill="#da880a" d="M 46.199219 29.34375 C 46.160156 29.046875 46.015625 28.808594 45.769531 28.636719 L 39.113281 23.632812 C 38.820312 23.414062 38.492188 23.304688 38.125 23.304688 C 37.761719 23.304688 37.433594 23.414062 37.140625 23.632812 L 35.269531 25.035156 C 34.976562 25.25 34.660156 25.417969 34.316406 25.53125 C 33.96875 25.648438 33.617188 25.703125 33.25 25.703125 C 32.886719 25.703125 32.535156 25.648438 32.1875 25.53125 C 31.84375 25.417969 31.527344 25.25 31.234375 25.035156 C 30.875 24.765625 30.703125 24.40625 30.71875 23.960938 C 30.742188 23.53125 30.925781 23.191406 31.273438 22.941406 L 34.496094 20.523438 C 34.640625 20.4375 34.679688 20.316406 34.601562 20.164062 C 34.527344 20.011719 34.410156 19.96875 34.25 20.03125 L 28.957031 21.882812 C 28.132812 22.171875 27.292969 22.222656 26.4375 22.042969 L 24.460938 21.65625 L 24.460938 21.644531 C 24.378906 21.632812 24.3125 21.625 24.261719 21.613281 L 4.667969 17.789062 C 4.667969 17.789062 7.363281 22.753906 9.230469 22.863281 C 13.097656 23.097656 23.332031 23.757812 23.332031 23.757812 L 7.714844 23.65625 C 7.714844 23.65625 10.46875 27.085938 11.941406 27.082031 C 13.660156 27.082031 16.957031 26.867188 19.507812 26.664062 L 12.953125 27.785156 C 12.953125 27.785156 15.585938 30.277344 16.816406 30.144531 C 18.507812 29.957031 26.894531 29.5 26.914062 29.5 C 27.234375 29.5 27.34375 29.550781 27.441406 29.683594 C 27.980469 30.433594 28.601562 31.109375 29.304688 31.710938 C 30.003906 32.3125 30.765625 32.824219 31.589844 33.246094 C 32.414062 33.667969 33.273438 33.988281 34.171875 34.203125 C 35.070312 34.421875 35.980469 34.527344 36.90625 34.53125 L 36.9375 34.53125 C 37.085938 34.53125 37.21875 34.492188 37.339844 34.402344 C 37.457031 34.316406 37.539062 34.203125 37.582031 34.0625 C 37.6875 33.757812 37.617188 33.503906 37.367188 33.300781 L 36.40625 32.578125 C 36.300781 32.5 36.234375 32.398438 36.210938 32.269531 C 36.183594 32.140625 36.207031 32.019531 36.273438 31.910156 C 36.351562 31.796875 36.457031 31.726562 36.59375 31.703125 C 36.730469 31.679688 36.855469 31.710938 36.964844 31.792969 L 37.914062 32.507812 L 37.960938 32.542969 L 39.578125 33.761719 C 39.753906 33.890625 39.949219 33.957031 40.167969 33.957031 C 40.382812 33.957031 40.582031 33.890625 40.753906 33.761719 C 40.941406 33.625 41.0625 33.445312 41.121094 33.222656 C 41.171875 33.03125 41.167969 32.839844 41.101562 32.652344 C 41.039062 32.464844 40.925781 32.3125 40.769531 32.191406 L 38.816406 30.730469 C 38.722656 30.660156 38.660156 30.570312 38.632812 30.457031 C 38.601562 30.34375 38.609375 30.234375 38.660156 30.125 C 38.726562 29.988281 38.832031 29.902344 38.980469 29.867188 C 39.125 29.832031 39.261719 29.859375 39.382812 29.949219 L 41.339844 31.414062 L 42.425781 32.234375 C 42.59375 32.367188 42.785156 32.4375 43 32.449219 C 43.214844 32.457031 43.414062 32.40625 43.59375 32.289062 C 43.726562 32.203125 43.832031 32.089844 43.90625 31.949219 C 43.984375 31.8125 44.027344 31.664062 44.03125 31.503906 C 44.039062 31.347656 44.007812 31.195312 43.9375 31.054688 C 43.871094 30.910156 43.773438 30.789062 43.648438 30.695312 L 41.195312 28.84375 C 41.097656 28.777344 41.035156 28.683594 41.003906 28.570312 C 40.976562 28.457031 40.984375 28.347656 41.03125 28.242188 C 41.097656 28.105469 41.203125 28.015625 41.351562 27.980469 C 41.5 27.945312 41.636719 27.972656 41.757812 28.066406 L 44.21875 29.917969 L 44.230469 29.917969 L 44.585938 30.1875 C 44.800781 30.347656 45.042969 30.414062 45.308594 30.386719 C 45.578125 30.359375 45.800781 30.246094 45.980469 30.046875 C 46.148438 29.839844 46.222656 29.609375 46.199219 29.34375 Z M 46.199219 29.34375 " fill-opacity="1" fill-rule="nonzero"/></g><g fill="#da880a" fill-opacity="1"><g transform="translate(31.799691, 57.178638)"><g><path d="M 0.53125 -0.328125 L 0.53125 -0.65625 L 1.09375 -0.65625 L 1.09375 -0.96875 L 0.53125 -0.96875 L 0.53125 -1.28125 L 1.15625 -1.28125 L 1.15625 -1.609375 L 0.1875 -1.609375 L 0.1875 0 L 1.171875 0 L 1.171875 -0.328125 Z M 0.53125 -0.328125 "/></g></g></g><g fill="#da880a" fill-opacity="1"><g transform="translate(34.136062, 57.178638)"><g><path d="M 0.71875 0.03125 C 1.046875 0.03125 1.328125 -0.140625 1.328125 -0.484375 C 1.328125 -0.84375 1.015625 -0.921875 0.78125 -0.984375 C 0.609375 -1.015625 0.46875 -1.0625 0.46875 -1.171875 C 0.46875 -1.28125 0.578125 -1.328125 0.6875 -1.328125 C 0.8125 -1.328125 0.9375 -1.265625 0.9375 -1.125 L 1.28125 -1.125 C 1.28125 -1.4375 1.0625 -1.640625 0.703125 -1.640625 C 0.34375 -1.640625 0.109375 -1.46875 0.109375 -1.15625 C 0.109375 -0.8125 0.40625 -0.734375 0.65625 -0.671875 C 0.828125 -0.640625 0.96875 -0.609375 0.96875 -0.484375 C 0.96875 -0.359375 0.84375 -0.296875 0.71875 -0.296875 C 0.578125 -0.296875 0.4375 -0.359375 0.4375 -0.515625 L 0.09375 -0.515625 C 0.09375 -0.171875 0.34375 0.03125 0.71875 0.03125 Z M 0.71875 0.03125 "/></g></g></g><g fill="#da880a" fill-opacity="1"><g transform="translate(36.609555, 57.178638)"><g><path d="M 1.296875 -1.609375 L 0.046875 -1.609375 L 0.046875 -1.28125 L 0.5 -1.28125 L 0.5 0 L 0.84375 0 L 0.84375 -1.28125 L 1.296875 -1.28125 Z M 1.296875 -1.609375 "/></g></g></g><g fill="#ffffff" fill-opacity="1"><g transform="translate(3.476153, 53.180074)"><g><path d="M 0.53125 -4.828125 L 0.53125 0 L 1.703125 0 L 1.703125 -3.4375 L 4.125 0 L 5.59375 0 L 5.59375 -4.828125 L 4.4375 -4.828125 L 4.4375 -1.421875 L 2.03125 -4.828125 Z M 0.53125 -4.828125 "/></g></g></g><g fill="#ffffff" fill-opacity="1"><g transform="translate(9.809794, 53.180074)"><g><path d="M 0.53125 -4.828125 L 0.53125 -2.109375 C 0.53125 -0.65625 1.390625 0.125 3.015625 0.125 C 4.625 0.125 5.484375 -0.640625 5.484375 -2.109375 L 5.484375 -4.828125 L 4.28125 -4.828125 L 4.28125 -2.171875 C 4.28125 -1.390625 3.96875 -0.859375 3.015625 -0.859375 C 2.109375 -0.859375 1.75 -1.296875 1.75 -2.234375 L 1.75 -4.828125 Z M 0.53125 -4.828125 "/></g></g></g><g fill="#ffffff" fill-opacity="1"><g transform="translate(16.030571, 53.180074)"><g><path d="M 2.734375 -4.828125 L 2.734375 -1.984375 C 2.734375 -1.234375 2.625 -0.859375 2.046875 -0.859375 C 1.609375 -0.859375 1.375 -1.15625 1.375 -1.765625 L 1.375 -1.984375 L 0.234375 -1.984375 L 0.234375 -1.671875 C 0.234375 -0.453125 0.8125 0.125 2.078125 0.125 C 3.21875 0.125 3.9375 -0.484375 3.9375 -1.78125 L 3.9375 -4.828125 Z M 2.734375 -4.828125 "/></g></g></g><g fill="#ffffff" fill-opacity="1"><g transform="translate(20.711098, 53.180074)"><g><path d="M 0.53125 -4.828125 L 0.53125 -2.109375 C 0.53125 -0.65625 1.390625 0.125 3.015625 0.125 C 4.625 0.125 5.484375 -0.640625 5.484375 -2.109375 L 5.484375 -4.828125 L 4.28125 -4.828125 L 4.28125 -2.171875 C 4.28125 -1.390625 3.96875 -0.859375 3.015625 -0.859375 C 2.109375 -0.859375 1.75 -1.296875 1.75 -2.234375 L 1.75 -4.828125 Z M 0.53125 -4.828125 "/></g></g></g><g fill="#ffffff" fill-opacity="1"><g transform="translate(26.931875, 53.180074)"><g><path d="M 0.53125 -4.828125 L 0.53125 0 L 1.703125 0 L 1.703125 -3.28125 L 3.140625 0 L 4.140625 0 L 5.625 -3.21875 L 5.625 0 L 6.796875 0 L 6.796875 -4.828125 L 5.25 -4.828125 L 3.65625 -1.375 L 2.09375 -4.828125 Z M 0.53125 -4.828125 "/></g></g></g><g fill="#ffffff" fill-opacity="1"><g transform="translate(34.460536, 53.180074)"><g/></g></g><g fill="#ffffff" fill-opacity="1"><g transform="translate(37.096248, 53.180074)"><g><path d="M -0.140625 0 L 1.171875 0 L 1.59375 -1.015625 L 3.71875 -1.015625 L 4.15625 0 L 5.5 0 L 3.3125 -4.828125 L 2.15625 -4.828125 Z M 2.015625 -2 L 2.640625 -3.484375 L 3.28125 -2 Z M 2.015625 -2 "/></g></g></g><g fill="#ffffff" fill-opacity="1"><g transform="translate(42.6664, 53.180074)"><g><path d="M 1.75 -4.828125 L 0.53125 -4.828125 L 0.53125 0 L 4.21875 0 L 4.21875 -0.984375 L 1.75 -0.984375 Z M 1.75 -4.828125 "/></g></g></g><g fill="#ffffff" fill-opacity="1"><g transform="translate(47.287176, 53.180074)"><g/></g></g><g fill="#ffffff" fill-opacity="1"><g transform="translate(49.922887, 53.180074)"><g><path d="M 0.53125 -4.828125 L 0.53125 0 L 1.703125 0 L 1.703125 -3.28125 L 3.140625 0 L 4.140625 0 L 5.625 -3.21875 L 5.625 0 L 6.796875 0 L 6.796875 -4.828125 L 5.25 -4.828125 L 3.65625 -1.375 L 2.09375 -4.828125 Z M 0.53125 -4.828125 "/></g></g></g><g fill="#ffffff" fill-opacity="1"><g transform="translate(57.451549, 53.180074)"><g><path d="M 1.765625 -4.828125 L 0.5625 -4.828125 L 0.5625 0 L 1.765625 0 Z M 1.765625 -4.828125 "/></g></g></g><g fill="#ffffff" fill-opacity="1"><g transform="translate(59.974397, 53.180074)"><g><path d="M -0.140625 0 L 1.171875 0 L 1.59375 -1.015625 L 3.71875 -1.015625 L 4.15625 0 L 5.5 0 L 3.3125 -4.828125 L 2.15625 -4.828125 Z M 2.015625 -2 L 2.640625 -3.484375 L 3.28125 -2 Z M 2.015625 -2 "/></g></g></g><g fill="#ffffff" fill-opacity="1"><g transform="translate(65.544549, 53.180074)"><g><path d="M 0.53125 0 L 2.71875 0 C 4.40625 0 5.703125 -0.546875 5.703125 -2.40625 C 5.703125 -4.15625 4.5 -4.828125 3 -4.828125 L 0.53125 -4.828125 Z M 1.75 -3.828125 L 2.6875 -3.828125 C 3.8125 -3.828125 4.375 -3.359375 4.375 -2.4375 C 4.375 -1.5 3.8125 -0.984375 2.6875 -0.984375 L 1.75 -0.984375 Z M 1.75 -3.828125 "/></g></g></g><g fill="#ffffff" fill-opacity="1"><g transform="translate(16.307391, 56.59262)"><g><path d="M 0.6875 0.359375 C 0.375 0.203125 0.289062 -0.03125 0.4375 -0.34375 L 0.875 -1.21875 C 1.019531 -1.53125 1.25 -1.609375 1.5625 -1.453125 L 2.5625 -0.96875 C 2.851562 -0.820312 2.925781 -0.59375 2.78125 -0.28125 L 2.703125 -0.125 C 2.691406 -0.113281 2.6875 -0.109375 2.6875 -0.109375 C 2.6875 -0.109375 2.675781 -0.109375 2.65625 -0.109375 L 2.328125 -0.28125 C 2.296875 -0.289062 2.285156 -0.304688 2.296875 -0.328125 L 2.34375 -0.4375 C 2.375 -0.488281 2.378906 -0.535156 2.359375 -0.578125 C 2.335938 -0.617188 2.300781 -0.65625 2.25 -0.6875 L 1.515625 -1.03125 C 1.460938 -1.0625 1.410156 -1.070312 1.359375 -1.0625 C 1.316406 -1.050781 1.28125 -1.015625 1.25 -0.953125 L 0.875 -0.203125 C 0.84375 -0.140625 0.835938 -0.0859375 0.859375 -0.046875 C 0.890625 -0.00390625 0.929688 0.03125 0.984375 0.0625 L 1.71875 0.40625 C 1.769531 0.4375 1.816406 0.445312 1.859375 0.4375 C 1.898438 0.425781 1.9375 0.390625 1.96875 0.328125 L 2.015625 0.234375 C 2.035156 0.203125 2.0625 0.191406 2.09375 0.203125 L 2.421875 0.375 C 2.441406 0.375 2.445312 0.378906 2.4375 0.390625 C 2.4375 0.410156 2.429688 0.425781 2.421875 0.4375 L 2.34375 0.59375 C 2.195312 0.90625 1.976562 0.988281 1.6875 0.84375 Z M 0.6875 0.359375 "/></g></g></g><g fill="#ffffff" fill-opacity="1"><g transform="translate(19.748126, 58.217469)"><g><path d="M 0.71875 0.28125 C 0.394531 0.164062 0.289062 -0.0507812 0.40625 -0.375 L 0.75 -1.296875 C 0.875 -1.617188 1.097656 -1.722656 1.421875 -1.609375 L 2.546875 -1.1875 C 2.867188 -1.0625 2.96875 -0.835938 2.84375 -0.515625 L 2.5 0.40625 C 2.382812 0.726562 2.164062 0.828125 1.84375 0.703125 Z M 1.84375 0.296875 C 1.90625 0.316406 1.957031 0.316406 2 0.296875 C 2.050781 0.285156 2.085938 0.242188 2.109375 0.171875 L 2.40625 -0.59375 C 2.425781 -0.664062 2.425781 -0.722656 2.40625 -0.765625 C 2.382812 -0.804688 2.34375 -0.835938 2.28125 -0.859375 L 1.40625 -1.1875 C 1.351562 -1.207031 1.300781 -1.207031 1.25 -1.1875 C 1.207031 -1.175781 1.175781 -1.132812 1.15625 -1.0625 L 0.859375 -0.296875 C 0.835938 -0.222656 0.835938 -0.164062 0.859375 -0.125 C 0.878906 -0.0820312 0.914062 -0.0507812 0.96875 -0.03125 Z M 1.84375 0.296875 "/></g></g></g><g fill="#ffffff" fill-opacity="1"><g transform="translate(23.452386, 59.539179)"><g><path d="M 0.3125 0.078125 C 0.269531 0.0664062 0.253906 0.0390625 0.265625 0 L 0.75 -1.8125 C 0.757812 -1.84375 0.785156 -1.851562 0.828125 -1.84375 L 1.234375 -1.734375 C 1.273438 -1.722656 1.300781 -1.695312 1.3125 -1.65625 L 2.015625 -0.09375 L 2.03125 -0.09375 L 2.375 -1.375 C 2.382812 -1.40625 2.410156 -1.414062 2.453125 -1.40625 L 2.78125 -1.3125 C 2.8125 -1.3125 2.820312 -1.296875 2.8125 -1.265625 L 2.328125 0.546875 C 2.316406 0.585938 2.296875 0.609375 2.265625 0.609375 L 1.859375 0.5 C 1.835938 0.488281 1.816406 0.476562 1.796875 0.46875 C 1.785156 0.457031 1.78125 0.441406 1.78125 0.421875 L 1.078125 -1.15625 L 1.046875 -1.15625 L 0.703125 0.125 C 0.691406 0.164062 0.675781 0.179688 0.65625 0.171875 Z M 0.3125 0.078125 "/></g></g></g><g fill="#ffffff" fill-opacity="1"><g transform="translate(27.195697, 60.466877)"><g><path d="M 2.375 -1.609375 C 2.414062 -1.597656 2.4375 -1.578125 2.4375 -1.546875 L 2.390625 -1.25 C 2.378906 -1.21875 2.351562 -1.207031 2.3125 -1.21875 L 1.5625 -1.34375 L 1.3125 0.15625 C 1.300781 0.195312 1.273438 0.210938 1.234375 0.203125 L 0.890625 0.15625 C 0.847656 0.144531 0.832031 0.117188 0.84375 0.078125 L 1.09375 -1.421875 L 0.34375 -1.546875 C 0.300781 -1.554688 0.285156 -1.578125 0.296875 -1.609375 L 0.34375 -1.90625 C 0.34375 -1.9375 0.363281 -1.945312 0.40625 -1.9375 Z M 2.375 -1.609375 "/></g></g></g><g fill="#ffffff" fill-opacity="1"><g transform="translate(30.499669, 60.984747)"><g><path d="M 2.328125 -1 C 2.316406 -0.84375 2.269531 -0.726562 2.1875 -0.65625 C 2.113281 -0.582031 1.992188 -0.554688 1.828125 -0.578125 L 1.65625 -0.59375 L 2.203125 0.078125 C 2.210938 0.109375 2.21875 0.128906 2.21875 0.140625 C 2.21875 0.148438 2.210938 0.15625 2.203125 0.15625 C 2.191406 0.164062 2.179688 0.171875 2.171875 0.171875 L 1.78125 0.140625 C 1.75 0.140625 1.71875 0.125 1.6875 0.09375 L 1.109375 -0.640625 L 0.78125 -0.65625 L 0.71875 0 C 0.71875 0.0390625 0.703125 0.0625 0.671875 0.0625 L 0.328125 0.03125 C 0.285156 0.0195312 0.265625 -0.00390625 0.265625 -0.046875 L 0.421875 -1.921875 C 0.421875 -1.953125 0.441406 -1.960938 0.484375 -1.953125 L 1.921875 -1.84375 C 2.085938 -1.820312 2.203125 -1.769531 2.265625 -1.6875 C 2.335938 -1.613281 2.367188 -1.5 2.359375 -1.34375 Z M 1.703125 -0.953125 C 1.765625 -0.941406 1.804688 -0.945312 1.828125 -0.96875 C 1.859375 -1 1.878906 -1.046875 1.890625 -1.109375 L 1.90625 -1.3125 C 1.90625 -1.375 1.890625 -1.414062 1.859375 -1.4375 C 1.835938 -1.46875 1.796875 -1.488281 1.734375 -1.5 L 0.84375 -1.5625 L 0.8125 -1.015625 Z M 1.703125 -0.953125 "/></g></g></g><g fill="#ffffff" fill-opacity="1"><g transform="translate(34.108975, 61.222627)"><g><path d="M 2.265625 -0.09375 C 2.273438 -0.0820312 2.28125 -0.0703125 2.28125 -0.0625 C 2.28125 -0.03125 2.257812 -0.015625 2.21875 -0.015625 L 1.890625 -0.015625 C 1.867188 -0.015625 1.851562 -0.015625 1.84375 -0.015625 C 1.832031 -0.0234375 1.820312 -0.0390625 1.8125 -0.0625 L 1.65625 -0.421875 L 0.59375 -0.40625 L 0.4375 -0.046875 C 0.425781 -0.0351562 0.414062 -0.0234375 0.40625 -0.015625 C 0.394531 -0.00390625 0.378906 0 0.359375 0 L 0.03125 0 C 0.0078125 0 -0.00390625 -0.00390625 -0.015625 -0.015625 C -0.0234375 -0.0234375 -0.03125 -0.0351562 -0.03125 -0.046875 C -0.03125 -0.0664062 -0.03125 -0.0820312 -0.03125 -0.09375 L 0.84375 -1.9375 C 0.851562 -1.957031 0.863281 -1.96875 0.875 -1.96875 C 0.894531 -1.976562 0.914062 -1.984375 0.9375 -1.984375 L 1.28125 -2 C 1.300781 -2 1.316406 -1.992188 1.328125 -1.984375 C 1.347656 -1.984375 1.359375 -1.972656 1.359375 -1.953125 Z M 1.09375 -1.546875 L 0.890625 -1.09375 L 0.75 -0.78125 L 1.484375 -0.796875 L 1.125 -1.546875 Z M 1.09375 -1.546875 "/></g></g></g><g fill="#ffffff" fill-opacity="1"><g transform="translate(37.542983, 61.151912)"><g><path d="M 0.765625 -0.0625 C 0.421875 -0.03125 0.234375 -0.1875 0.203125 -0.53125 L 0.109375 -1.515625 C 0.0664062 -1.847656 0.21875 -2.03125 0.5625 -2.0625 L 1.65625 -2.171875 C 1.988281 -2.203125 2.175781 -2.050781 2.21875 -1.71875 L 2.234375 -1.546875 C 2.234375 -1.523438 2.226562 -1.507812 2.21875 -1.5 C 2.21875 -1.5 2.207031 -1.5 2.1875 -1.5 L 1.828125 -1.453125 C 1.785156 -1.453125 1.765625 -1.46875 1.765625 -1.5 L 1.75 -1.609375 C 1.738281 -1.671875 1.71875 -1.710938 1.6875 -1.734375 C 1.65625 -1.765625 1.609375 -1.78125 1.546875 -1.78125 L 0.75 -1.703125 C 0.6875 -1.691406 0.632812 -1.664062 0.59375 -1.625 C 0.5625 -1.59375 0.550781 -1.539062 0.5625 -1.46875 L 0.640625 -0.640625 C 0.648438 -0.566406 0.675781 -0.515625 0.71875 -0.484375 C 0.757812 -0.460938 0.8125 -0.457031 0.875 -0.46875 L 1.671875 -0.546875 C 1.734375 -0.546875 1.773438 -0.5625 1.796875 -0.59375 C 1.828125 -0.632812 1.835938 -0.691406 1.828125 -0.765625 L 1.828125 -0.859375 C 1.816406 -0.898438 1.832031 -0.921875 1.875 -0.921875 L 2.234375 -0.96875 C 2.253906 -0.96875 2.269531 -0.960938 2.28125 -0.953125 C 2.289062 -0.941406 2.296875 -0.925781 2.296875 -0.90625 L 2.3125 -0.734375 C 2.34375 -0.390625 2.191406 -0.203125 1.859375 -0.171875 Z M 0.765625 -0.0625 "/></g></g></g><g fill="#ffffff" fill-opacity="1"><g transform="translate(41.317199, 60.715455)"><g><path d="M 1.671875 -2.34375 C 1.710938 -2.351562 1.738281 -2.34375 1.75 -2.3125 L 1.796875 -2.015625 C 1.804688 -1.972656 1.789062 -1.945312 1.75 -1.9375 L 1 -1.796875 L 1.28125 -0.3125 C 1.289062 -0.269531 1.273438 -0.242188 1.234375 -0.234375 L 0.890625 -0.171875 C 0.847656 -0.160156 0.820312 -0.175781 0.8125 -0.21875 L 0.53125 -1.703125 L -0.21875 -1.5625 C -0.257812 -1.550781 -0.285156 -1.566406 -0.296875 -1.609375 L -0.34375 -1.90625 C -0.351562 -1.9375 -0.335938 -1.957031 -0.296875 -1.96875 Z M 1.671875 -2.34375 "/></g></g></g><g fill="#ffffff" fill-opacity="1"><g transform="translate(44.587375, 60.038406)"><g><path d="M 0.703125 -1.875 L 1.046875 -0.671875 L 1.5625 -0.8125 C 1.601562 -0.820312 1.628906 -0.804688 1.640625 -0.765625 L 1.703125 -0.53125 C 1.710938 -0.488281 1.695312 -0.460938 1.65625 -0.453125 L 0.203125 -0.046875 C 0.160156 -0.0351562 0.132812 -0.0507812 0.125 -0.09375 L 0.0625 -0.328125 C 0.0507812 -0.367188 0.0664062 -0.394531 0.109375 -0.40625 L 0.609375 -0.5625 L 0.265625 -1.765625 L -0.234375 -1.609375 C -0.273438 -1.597656 -0.296875 -1.609375 -0.296875 -1.640625 L -0.375 -1.90625 C -0.382812 -1.925781 -0.367188 -1.941406 -0.328125 -1.953125 L 1.125 -2.359375 C 1.164062 -2.367188 1.191406 -2.363281 1.203125 -2.34375 L 1.28125 -2.078125 C 1.28125 -2.046875 1.257812 -2.023438 1.21875 -2.015625 Z M 0.703125 -1.875 "/></g></g></g><g fill="#ffffff" fill-opacity="1"><g transform="translate(47.57726, 59.175046)"><g><path d="M 0.3125 -0.109375 C 0.269531 -0.0976562 0.242188 -0.113281 0.234375 -0.15625 L -0.421875 -1.90625 C -0.429688 -1.9375 -0.414062 -1.957031 -0.375 -1.96875 L 0.015625 -2.125 C 0.0546875 -2.132812 0.09375 -2.128906 0.125 -2.109375 L 1.578125 -1.25 L 1.59375 -1.25 L 1.140625 -2.484375 C 1.128906 -2.515625 1.144531 -2.539062 1.1875 -2.5625 L 1.515625 -2.671875 C 1.535156 -2.691406 1.550781 -2.6875 1.5625 -2.65625 L 2.21875 -0.90625 C 2.226562 -0.863281 2.222656 -0.832031 2.203125 -0.8125 L 1.796875 -0.671875 C 1.773438 -0.660156 1.757812 -0.65625 1.75 -0.65625 C 1.738281 -0.65625 1.722656 -0.664062 1.703125 -0.6875 L 0.21875 -1.5625 L 0.1875 -1.546875 L 0.65625 -0.3125 C 0.664062 -0.269531 0.65625 -0.242188 0.625 -0.234375 Z M 0.3125 -0.109375 "/></g></g></g><g fill="#ffffff" fill-opacity="1"><g transform="translate(51.174399, 57.7705)"><g><path d="M 0.6875 -0.328125 C 0.375 -0.171875 0.144531 -0.25 0 -0.5625 L -0.4375 -1.4375 C -0.582031 -1.75 -0.5 -1.984375 -0.1875 -2.140625 L 0.84375 -2.640625 C 1 -2.710938 1.128906 -2.726562 1.234375 -2.6875 C 1.347656 -2.65625 1.441406 -2.554688 1.515625 -2.390625 L 1.578125 -2.28125 C 1.585938 -2.25 1.578125 -2.222656 1.546875 -2.203125 L 1.21875 -2.046875 C 1.1875 -2.035156 1.164062 -2.046875 1.15625 -2.078125 L 1.109375 -2.171875 C 1.085938 -2.222656 1.054688 -2.25 1.015625 -2.25 C 0.972656 -2.257812 0.925781 -2.253906 0.875 -2.234375 L 0.09375 -1.84375 C 0.0390625 -1.820312 0.00390625 -1.789062 -0.015625 -1.75 C -0.0351562 -1.707031 -0.03125 -1.65625 0 -1.59375 L 0.375 -0.8125 C 0.40625 -0.75 0.445312 -0.710938 0.5 -0.703125 C 0.550781 -0.691406 0.601562 -0.695312 0.65625 -0.71875 L 1.4375 -1.109375 C 1.5 -1.140625 1.535156 -1.171875 1.546875 -1.203125 C 1.554688 -1.242188 1.550781 -1.289062 1.53125 -1.34375 L 1.453125 -1.5 L 0.859375 -1.21875 C 0.828125 -1.195312 0.800781 -1.207031 0.78125 -1.25 L 0.6875 -1.4375 C 0.664062 -1.476562 0.671875 -1.507812 0.703125 -1.53125 L 1.671875 -2 C 1.691406 -2.007812 1.710938 -1.992188 1.734375 -1.953125 L 1.953125 -1.515625 C 2.097656 -1.203125 2.023438 -0.972656 1.734375 -0.828125 Z M 0.6875 -0.328125 "/></g></g></g></svg>