<svg xmlns="http://www.w3.org/2000/svg" xmlns:xlink="http://www.w3.org/1999/xlink" width="250" zoomAndPan="magnify" viewBox="0 0 187.5 74.999997" height="100" preserveAspectRatio="xMidYMid meet" version="1.0"><defs><g/><clipPath id="09c2f60dd8"><path d="M 25 39 L 50 39 L 50 52.539062 L 25 52.539062 Z M 25 39 " clip-rule="nonzero"/></clipPath><clipPath id="2339902c6d"><path d="M 32 28 L 66.574219 28 L 66.574219 40 L 32 40 Z M 32 28 " clip-rule="nonzero"/></clipPath><clipPath id="61311bca14"><path d="M 7.480469 28 L 46 28 L 46 44 L 7.480469 44 Z M 7.480469 28 " clip-rule="nonzero"/></clipPath></defs><g fill="#da880a" fill-opacity="1"><g transform="translate(70.708474, 34.619068)"><g><path d="M 7.765625 -0.21875 L 8.125 -0.015625 L 8.5 0.03125 L 8.78125 -0.0625 L 8.921875 -0.328125 L 8.9375 -5.140625 L 8.90625 -5.359375 L 8.90625 -6.671875 L 8.9375 -6.984375 L 8.90625 -8.8125 L 8.765625 -9.078125 L 8.515625 -9.21875 L 6.875 -9.203125 L 6.625 -9.0625 L 6.484375 -8.78125 L 6.46875 -8.515625 L 6.5 -8.296875 L 6.46875 -7.75 L 6.5 -7.453125 L 6.46875 -5.09375 L 6.390625 -4.875 L 6.1875 -4.96875 L 5.25 -5.90625 L 4.890625 -6.1875 L 2.296875 -8.8125 L 2.09375 -8.96875 L 1.796875 -9.125 L 1.390625 -9.21875 L 1.09375 -9.09375 L 0.96875 -8.84375 L 0.96875 -4.625 L 0.984375 -4.078125 L 0.953125 -3.859375 L 0.96875 -1.703125 L 0.953125 -1.453125 L 0.96875 -0.34375 L 1.09375 -0.09375 L 1.375 0 L 1.90625 0.03125 L 2.203125 0 L 2.71875 0.046875 L 2.984375 0.03125 L 3.25 -0.109375 L 3.390625 -0.515625 L 3.390625 -3.84375 L 3.421875 -4.109375 L 3.515625 -4.328125 L 3.6875 -4.265625 L 3.859375 -4.046875 L 4.796875 -3.140625 L 4.96875 -2.953125 L 5.1875 -2.8125 L 7.234375 -0.78125 L 7.578125 -0.390625 Z M 7.765625 -0.21875 "/></g></g></g><g fill="#da880a" fill-opacity="1"><g transform="translate(80.638805, 34.619068)"><g><path d="M 4.53125 0.171875 L 4.921875 0.125 L 5.171875 0.140625 L 6.203125 -0.125 L 6.671875 -0.375 L 7.109375 -0.65625 L 7.484375 -1.03125 L 7.78125 -1.484375 L 7.859375 -1.75 L 8 -1.96875 L 8.109375 -2.53125 L 8.1875 -3.15625 L 8.1875 -6.71875 L 8.15625 -6.96875 L 8.1875 -7.25 L 8.15625 -7.46875 L 8.15625 -8.5625 L 8.1875 -8.828125 L 8.015625 -9.109375 L 7.734375 -9.1875 L 6.90625 -9.171875 L 6.34375 -9.203125 L 6.078125 -9.078125 L 5.921875 -8.78125 L 5.953125 -3.59375 L 5.859375 -2.78125 L 5.78125 -2.578125 L 5.640625 -2.3125 L 5.40625 -2.15625 L 4.953125 -1.984375 L 4.15625 -1.984375 L 3.859375 -2.0625 L 3.640625 -2.1875 L 3.421875 -2.34375 L 3.265625 -2.5625 L 3.1875 -2.8125 L 3.109375 -3.5625 L 3.140625 -7.8125 L 3.125 -8.015625 L 3.140625 -8.4375 L 3.125 -8.8125 L 2.96875 -9.109375 L 2.6875 -9.21875 L 2.4375 -9.21875 L 2.171875 -9.1875 L 1.609375 -9.234375 L 1.328125 -9.1875 L 1.046875 -9.09375 L 0.875 -8.84375 L 0.90625 -8.578125 L 0.90625 -8.265625 L 0.875 -8.046875 L 0.921875 -6.203125 L 0.875 -5.9375 L 0.90625 -5.6875 L 0.875 -3.5625 L 0.953125 -2.515625 L 1.078125 -1.96875 L 1.296875 -1.53125 L 1.59375 -1.046875 L 1.75 -0.875 L 1.953125 -0.703125 L 2.375 -0.421875 L 2.640625 -0.296875 L 2.828125 -0.1875 L 3.328125 0.046875 L 3.84375 0.140625 L 4.109375 0.140625 Z M 4.53125 0.171875 "/></g></g></g><g fill="#da880a" fill-opacity="1"><g transform="translate(89.726243, 34.619068)"><g><path d="M 3.34375 0.140625 L 3.75 0.140625 L 4.125 0.109375 L 4.40625 0.109375 L 4.9375 0.03125 L 5.171875 -0.125 L 5.921875 -0.46875 L 6.09375 -0.625 L 6.328125 -0.78125 L 6.84375 -1.359375 L 7.078125 -1.796875 L 7.25 -2.375 L 7.3125 -3.015625 L 7.28125 -6.5 L 7.328125 -6.75 L 7.296875 -8.84375 L 7.171875 -9.109375 L 6.75 -9.203125 L 6.09375 -9.21875 L 5.828125 -9.1875 L 4.765625 -9.234375 L 4.484375 -9.1875 L 4.09375 -9.265625 L 3.703125 -9.1875 L 3.421875 -9.1875 L 3.140625 -9.078125 L 3 -8.84375 L 3.03125 -8.578125 L 3.015625 -8.328125 L 3.03125 -8.015625 L 3 -7.796875 L 3.03125 -7.53125 L 3.125 -7.25 L 3.421875 -7.125 L 3.671875 -7.09375 L 4.0625 -7.09375 L 4.46875 -7.109375 L 4.734375 -6.96875 L 4.890625 -6.71875 L 4.828125 -2.671875 L 4.734375 -2.40625 L 4.578125 -2.21875 L 4.125 -2 L 3.734375 -1.96875 L 3.375 -2.046875 L 3.109375 -2.140625 L 2.875 -2.265625 L 2.6875 -2.4375 L 2.59375 -2.65625 L 2.515625 -3.0625 L 2.5 -3.65625 L 2.53125 -3.90625 L 2.390625 -4.140625 L 2.09375 -4.234375 L 1.265625 -4.265625 L 1 -4.234375 L 0.71875 -4.234375 L 0.421875 -4.125 L 0.296875 -3.875 L 0.28125 -3.40625 L 0.3125 -3.03125 L 0.296875 -2.640625 L 0.328125 -2.375 L 0.40625 -2.109375 L 0.59375 -1.640625 L 1.015625 -0.953125 L 1.21875 -0.75 L 1.828125 -0.296875 L 2.3125 -0.109375 L 2.5625 -0.046875 L 2.84375 0.0625 L 3.078125 0.0625 Z M 3.34375 0.140625 "/></g></g></g><g fill="#da880a" fill-opacity="1"><g transform="translate(97.944449, 34.619068)"><g><path d="M 4.53125 0.171875 L 4.921875 0.125 L 5.171875 0.140625 L 6.203125 -0.125 L 6.671875 -0.375 L 7.109375 -0.65625 L 7.484375 -1.03125 L 7.78125 -1.484375 L 7.859375 -1.75 L 8 -1.96875 L 8.109375 -2.53125 L 8.1875 -3.15625 L 8.1875 -6.71875 L 8.15625 -6.96875 L 8.1875 -7.25 L 8.15625 -7.46875 L 8.15625 -8.5625 L 8.1875 -8.828125 L 8.015625 -9.109375 L 7.734375 -9.1875 L 6.90625 -9.171875 L 6.34375 -9.203125 L 6.078125 -9.078125 L 5.921875 -8.78125 L 5.953125 -3.59375 L 5.859375 -2.78125 L 5.78125 -2.578125 L 5.640625 -2.3125 L 5.40625 -2.15625 L 4.953125 -1.984375 L 4.15625 -1.984375 L 3.859375 -2.0625 L 3.640625 -2.1875 L 3.421875 -2.34375 L 3.265625 -2.5625 L 3.1875 -2.8125 L 3.109375 -3.5625 L 3.140625 -7.8125 L 3.125 -8.015625 L 3.140625 -8.4375 L 3.125 -8.8125 L 2.96875 -9.109375 L 2.6875 -9.21875 L 2.4375 -9.21875 L 2.171875 -9.1875 L 1.609375 -9.234375 L 1.328125 -9.1875 L 1.046875 -9.09375 L 0.875 -8.84375 L 0.90625 -8.578125 L 0.90625 -8.265625 L 0.875 -8.046875 L 0.921875 -6.203125 L 0.875 -5.9375 L 0.90625 -5.6875 L 0.875 -3.5625 L 0.953125 -2.515625 L 1.078125 -1.96875 L 1.296875 -1.53125 L 1.59375 -1.046875 L 1.75 -0.875 L 1.953125 -0.703125 L 2.375 -0.421875 L 2.640625 -0.296875 L 2.828125 -0.1875 L 3.328125 0.046875 L 3.84375 0.140625 L 4.109375 0.140625 Z M 4.53125 0.171875 "/></g></g></g><g fill="#da880a" fill-opacity="1"><g transform="translate(107.031888, 34.619068)"><g><path d="M 1.375 0.046875 L 1.640625 0 L 2.140625 0.03125 L 2.4375 -0.015625 L 2.859375 0.015625 L 3.234375 -0.140625 L 3.390625 -0.375 L 3.34375 -1.765625 L 3.390625 -2.171875 L 3.375 -2.453125 L 3.390625 -2.921875 L 3.375 -3.21875 L 3.375 -3.734375 L 3.484375 -3.84375 L 3.625 -3.796875 L 3.828125 -3.625 L 3.984375 -3.421875 L 4.53125 -2.890625 L 4.703125 -2.671875 L 5.0625 -2.328125 L 5.328125 -2.140625 L 5.625 -2.125 L 5.890625 -2.3125 L 6.078125 -2.515625 L 6.234375 -2.671875 L 6.59375 -3.109375 L 6.78125 -3.234375 L 7.328125 -3.796875 L 7.5 -3.875 L 7.59375 -3.671875 L 7.578125 -2.953125 L 7.609375 -2.421875 L 7.59375 -1.90625 L 7.609375 -1.421875 L 7.59375 -1.1875 L 7.609375 -0.59375 L 7.609375 -0.390625 L 7.71875 -0.09375 L 8 -0.015625 L 9.59375 0.046875 L 9.859375 -0.109375 L 10.03125 -0.484375 L 9.984375 -1.171875 L 10.015625 -1.4375 L 9.984375 -5.390625 L 10.015625 -5.671875 L 10 -6.984375 L 10.015625 -7.234375 L 9.984375 -7.796875 L 10 -8.015625 L 9.984375 -8.5625 L 10.015625 -8.8125 L 9.859375 -9.09375 L 9.578125 -9.234375 L 9.1875 -9.109375 L 8.921875 -8.9375 L 8.359375 -8.359375 L 8.1875 -8.15625 L 8.03125 -8.015625 L 7.84375 -7.765625 L 6.6875 -6.59375 L 6.515625 -6.359375 L 5.71875 -5.546875 L 5.484375 -5.390625 L 5.203125 -5.5 L 5.046875 -5.71875 L 4.859375 -5.90625 L 4.625 -6.203125 L 4.328125 -6.46875 L 3.140625 -7.796875 L 2.953125 -7.953125 L 2.609375 -8.359375 L 2.390625 -8.546875 L 2.0625 -8.90625 L 1.75 -9.125 L 1.390625 -9.234375 L 1.09375 -9.109375 L 0.953125 -8.828125 L 0.984375 -8.015625 L 0.953125 -7.515625 L 0.96875 -7.265625 L 0.96875 -5.15625 L 0.984375 -4.90625 L 0.953125 -3.5625 L 0.96875 -3.3125 L 0.96875 -0.40625 L 1.109375 -0.125 Z M 1.375 0.046875 "/></g></g></g><g fill="#da880a" fill-opacity="1"><g transform="translate(118.042171, 34.619068)"><g/></g></g><g fill="#da880a" fill-opacity="1"><g transform="translate(121.611291, 34.619068)"><g><path d="M 7.765625 0.03125 L 8.265625 -0.015625 L 8.515625 0.015625 L 8.9375 0 L 9.296875 -0.0625 L 9.34375 -0.375 L 9.25 -0.6875 L 9.046875 -1.171875 L 8.6875 -1.859375 L 8.515625 -2.34375 L 8.25 -2.8125 L 7.75 -4.015625 L 7.609375 -4.21875 L 7.484375 -4.46875 L 7.40625 -4.75 L 7.28125 -4.953125 L 7.203125 -5.15625 L 6.921875 -5.65625 L 6.84375 -5.921875 L 5.96875 -7.765625 L 5.890625 -8.015625 L 5.75 -8.265625 L 5.65625 -8.5 L 5.40625 -8.953125 L 5.1875 -9.1875 L 4.75 -9.328125 L 4.328125 -9.1875 L 4.09375 -8.953125 L 3.984375 -8.734375 L 3.890625 -8.46875 L 3.765625 -8.28125 L 3.234375 -7.078125 L 3.09375 -6.875 L 3.03125 -6.609375 L 2.890625 -6.359375 L 2.8125 -6.125 L 1.46875 -3.3125 L 1.390625 -3.015625 L 1.25 -2.8125 L 1.15625 -2.5625 L 0.921875 -2.140625 L 0.71875 -1.609375 L 0.578125 -1.421875 L 0.515625 -1.1875 L 0.25 -0.65625 L 0.171875 -0.390625 L 0.234375 -0.0625 L 0.5 0.015625 L 1.015625 -0.015625 L 1.28125 0.015625 L 2.015625 -0.015625 L 2.3125 -0.109375 L 2.5625 -0.34375 L 2.8125 -0.78125 L 3.0625 -1.03125 L 3.328125 -1.171875 L 3.578125 -1.125 L 4.140625 -1.1875 L 4.375 -1.140625 L 5.65625 -1.15625 L 5.90625 -1.125 L 6.1875 -1.171875 L 6.484375 -1.03125 L 6.734375 -0.8125 L 6.84375 -0.5625 L 6.921875 -0.328125 L 7.1875 -0.125 L 7.5 0 Z M 4.78125 -3.25 L 4.515625 -3.3125 L 4.21875 -3.28125 L 4 -3.375 L 3.984375 -3.625 L 4.609375 -5.046875 L 4.75 -5.15625 L 4.9375 -5.0625 L 5.5625 -3.609375 L 5.5 -3.375 L 5.3125 -3.265625 Z M 4.78125 -3.25 "/></g></g></g><g fill="#da880a" fill-opacity="1"><g transform="translate(131.172854, 34.619068)"><g><path d="M 1 -0.46875 L 1.09375 -0.125 L 1.34375 0 L 1.609375 0.03125 L 2.15625 -0.015625 L 2.671875 0.015625 L 3.171875 -0.015625 L 3.421875 0.03125 L 3.71875 0 L 6.328125 0.015625 L 6.578125 -0.125 L 6.71875 -0.53125 L 6.703125 -1.59375 L 6.59375 -1.984375 L 6.34375 -2.140625 L 6.078125 -2.125 L 5.828125 -2.0625 L 5.546875 -2.109375 L 5 -2.09375 L 4.734375 -2.140625 L 4.5 -2.109375 L 3.984375 -2.140625 L 3.71875 -2.109375 L 3.453125 -2.21875 L 3.34375 -2.46875 L 3.359375 -6.9375 L 3.328125 -7.25 L 3.359375 -7.78125 L 3.3125 -8.53125 L 3.328125 -8.78125 L 3.203125 -9.078125 L 2.9375 -9.234375 L 2.421875 -9.234375 L 2.15625 -9.1875 L 1.640625 -9.234375 L 1.390625 -9.1875 L 1.109375 -9.09375 L 0.984375 -8.796875 L 0.984375 -6.953125 L 0.96875 -6.703125 L 0.984375 -6.4375 L 0.953125 -5.953125 L 0.96875 -5.65625 L 0.984375 -5.40625 Z M 1 -0.46875 "/></g></g></g><g fill="#da880a" fill-opacity="1"><g transform="translate(138.258418, 34.619068)"><g/></g></g><g fill="#da880a" fill-opacity="1"><g transform="translate(141.827538, 34.619068)"><g><path d="M 1.375 0.046875 L 1.640625 0 L 2.140625 0.03125 L 2.4375 -0.015625 L 2.859375 0.015625 L 3.234375 -0.140625 L 3.390625 -0.375 L 3.34375 -1.765625 L 3.390625 -2.171875 L 3.375 -2.453125 L 3.390625 -2.921875 L 3.375 -3.21875 L 3.375 -3.734375 L 3.484375 -3.84375 L 3.625 -3.796875 L 3.828125 -3.625 L 3.984375 -3.421875 L 4.53125 -2.890625 L 4.703125 -2.671875 L 5.0625 -2.328125 L 5.328125 -2.140625 L 5.625 -2.125 L 5.890625 -2.3125 L 6.078125 -2.515625 L 6.234375 -2.671875 L 6.59375 -3.109375 L 6.78125 -3.234375 L 7.328125 -3.796875 L 7.5 -3.875 L 7.59375 -3.671875 L 7.578125 -2.953125 L 7.609375 -2.421875 L 7.59375 -1.90625 L 7.609375 -1.421875 L 7.59375 -1.1875 L 7.609375 -0.59375 L 7.609375 -0.390625 L 7.71875 -0.09375 L 8 -0.015625 L 9.59375 0.046875 L 9.859375 -0.109375 L 10.03125 -0.484375 L 9.984375 -1.171875 L 10.015625 -1.4375 L 9.984375 -5.390625 L 10.015625 -5.671875 L 10 -6.984375 L 10.015625 -7.234375 L 9.984375 -7.796875 L 10 -8.015625 L 9.984375 -8.5625 L 10.015625 -8.8125 L 9.859375 -9.09375 L 9.578125 -9.234375 L 9.1875 -9.109375 L 8.921875 -8.9375 L 8.359375 -8.359375 L 8.1875 -8.15625 L 8.03125 -8.015625 L 7.84375 -7.765625 L 6.6875 -6.59375 L 6.515625 -6.359375 L 5.71875 -5.546875 L 5.484375 -5.390625 L 5.203125 -5.5 L 5.046875 -5.71875 L 4.859375 -5.90625 L 4.625 -6.203125 L 4.328125 -6.46875 L 3.140625 -7.796875 L 2.953125 -7.953125 L 2.609375 -8.359375 L 2.390625 -8.546875 L 2.0625 -8.90625 L 1.75 -9.125 L 1.390625 -9.234375 L 1.09375 -9.109375 L 0.953125 -8.828125 L 0.984375 -8.015625 L 0.953125 -7.515625 L 0.96875 -7.265625 L 0.96875 -5.15625 L 0.984375 -4.90625 L 0.953125 -3.5625 L 0.96875 -3.3125 L 0.96875 -0.40625 L 1.109375 -0.125 Z M 1.375 0.046875 "/></g></g></g><g fill="#da880a" fill-opacity="1"><g transform="translate(152.837821, 34.619068)"><g><path d="M 4.40625 0.046875 L 4.9375 0.03125 L 5.171875 -0.109375 L 5.3125 -0.359375 L 5.3125 -1.65625 L 5.15625 -1.90625 L 4.859375 -2.0625 L 4.578125 -2.0625 L 4.265625 -2.15625 L 4.109375 -2.46875 L 4.15625 -2.71875 L 4.140625 -4.15625 L 4.15625 -4.453125 L 4.109375 -5.40625 L 4.15625 -6.734375 L 4.25 -7.03125 L 4.546875 -7.15625 L 4.8125 -7.1875 L 5.078125 -7.296875 L 5.21875 -7.515625 L 5.234375 -8.8125 L 5.078125 -9.0625 L 4.828125 -9.203125 L 3.234375 -9.203125 L 3 -9.234375 L 2.734375 -9.1875 L 1.65625 -9.1875 L 1.40625 -9.21875 L 1.109375 -9.21875 L 0.84375 -9.09375 L 0.71875 -8.765625 L 0.75 -7.796875 L 0.71875 -7.546875 L 0.875 -7.28125 L 1.15625 -7.140625 L 1.421875 -7.140625 L 1.671875 -6.984375 L 1.796875 -6.625 L 1.828125 -2.578125 L 1.6875 -2.1875 L 0.8125 -1.921875 L 0.671875 -1.6875 L 0.625 -0.46875 L 0.765625 -0.125 L 1.03125 0 L 1.28125 0 L 1.53125 -0.03125 L 1.90625 0.03125 L 2.3125 0.015625 L 2.578125 -0.015625 L 3.109375 0.046875 L 3.5 -0.015625 L 4.15625 -0.015625 Z M 4.40625 0.046875 "/></g></g></g><g fill="#da880a" fill-opacity="1"><g transform="translate(158.817094, 34.619068)"><g><path d="M 7.765625 0.03125 L 8.265625 -0.015625 L 8.515625 0.015625 L 8.9375 0 L 9.296875 -0.0625 L 9.34375 -0.375 L 9.25 -0.6875 L 9.046875 -1.171875 L 8.6875 -1.859375 L 8.515625 -2.34375 L 8.25 -2.8125 L 7.75 -4.015625 L 7.609375 -4.21875 L 7.484375 -4.46875 L 7.40625 -4.75 L 7.28125 -4.953125 L 7.203125 -5.15625 L 6.921875 -5.65625 L 6.84375 -5.921875 L 5.96875 -7.765625 L 5.890625 -8.015625 L 5.75 -8.265625 L 5.65625 -8.5 L 5.40625 -8.953125 L 5.1875 -9.1875 L 4.75 -9.328125 L 4.328125 -9.1875 L 4.09375 -8.953125 L 3.984375 -8.734375 L 3.890625 -8.46875 L 3.765625 -8.28125 L 3.234375 -7.078125 L 3.09375 -6.875 L 3.03125 -6.609375 L 2.890625 -6.359375 L 2.8125 -6.125 L 1.46875 -3.3125 L 1.390625 -3.015625 L 1.25 -2.8125 L 1.15625 -2.5625 L 0.921875 -2.140625 L 0.71875 -1.609375 L 0.578125 -1.421875 L 0.515625 -1.1875 L 0.25 -0.65625 L 0.171875 -0.390625 L 0.234375 -0.0625 L 0.5 0.015625 L 1.015625 -0.015625 L 1.28125 0.015625 L 2.015625 -0.015625 L 2.3125 -0.109375 L 2.5625 -0.34375 L 2.8125 -0.78125 L 3.0625 -1.03125 L 3.328125 -1.171875 L 3.578125 -1.125 L 4.140625 -1.1875 L 4.375 -1.140625 L 5.65625 -1.15625 L 5.90625 -1.125 L 6.1875 -1.171875 L 6.484375 -1.03125 L 6.734375 -0.8125 L 6.84375 -0.5625 L 6.921875 -0.328125 L 7.1875 -0.125 L 7.5 0 Z M 4.78125 -3.25 L 4.515625 -3.3125 L 4.21875 -3.28125 L 4 -3.375 L 3.984375 -3.625 L 4.609375 -5.046875 L 4.75 -5.15625 L 4.9375 -5.0625 L 5.5625 -3.609375 L 5.5 -3.375 L 5.3125 -3.265625 Z M 4.78125 -3.25 "/></g></g></g><g fill="#da880a" fill-opacity="1"><g transform="translate(168.378656, 34.619068)"><g><path d="M 4.0625 0.046875 L 4.453125 0.046875 L 4.859375 -0.015625 L 5.125 -0.015625 L 5.5 -0.125 L 6.046875 -0.21875 L 6.671875 -0.484375 L 7.546875 -1.078125 L 8.1875 -1.90625 L 8.328125 -2.171875 L 8.484375 -2.390625 L 8.6875 -2.890625 L 8.765625 -3.140625 L 8.8125 -3.421875 L 8.890625 -3.65625 L 8.9375 -3.90625 L 8.9375 -4.1875 L 8.96875 -4.609375 L 8.953125 -4.984375 L 8.765625 -6.03125 L 8.59375 -6.53125 L 8.5 -6.78125 L 8.046875 -7.484375 L 7.34375 -8.265625 L 6.671875 -8.703125 L 6.421875 -8.84375 L 6.171875 -8.90625 L 5.9375 -9.015625 L 5.65625 -9.078125 L 4.890625 -9.1875 L 1.890625 -9.21875 L 1.640625 -9.1875 L 1.390625 -9.1875 L 1.09375 -9.078125 L 0.96875 -8.796875 L 0.96875 -1.4375 L 0.984375 -1.1875 L 0.984375 -0.515625 L 1.125 -0.109375 L 1.390625 0.03125 L 1.640625 0 L 3.25 0.03125 L 3.515625 -0.015625 Z M 4.015625 -2.125 L 3.765625 -2.140625 L 3.46875 -2.296875 L 3.359375 -2.546875 L 3.34375 -2.765625 L 3.359375 -3.3125 L 3.3125 -3.953125 L 3.359375 -4.609375 L 3.328125 -6.421875 L 3.359375 -6.65625 L 3.484375 -6.953125 L 3.90625 -7.046875 L 4.46875 -7.0625 L 4.84375 -7.015625 L 5.359375 -6.875 L 5.59375 -6.75 L 5.796875 -6.609375 L 6 -6.421875 L 6.1875 -6.1875 L 6.328125 -5.96875 L 6.4375 -5.734375 L 6.65625 -4.578125 L 6.515625 -3.65625 L 6.296875 -3.15625 L 5.8125 -2.609375 L 5.359375 -2.3125 L 4.984375 -2.203125 L 4.40625 -2.140625 Z M 4.015625 -2.125 "/></g></g></g><g fill="#000000" fill-opacity="1"><g transform="translate(71.739235, 43.807696)"><g><path d="M 2.3125 0.046875 L 2.640625 0.078125 L 3.109375 0.046875 L 3.5 -0.03125 L 3.625 -0.09375 L 3.765625 -0.140625 L 3.875 -0.203125 L 4.203125 -0.4375 L 4.390625 -0.625 L 4.53125 -0.8125 L 4.671875 -1.0625 L 4.84375 -1.5625 L 4.8125 -1.6875 L 4.671875 -1.765625 L 4.296875 -1.734375 L 4.171875 -1.765625 L 4.03125 -1.75 L 3.90625 -1.765625 L 3.75 -1.6875 L 3.640625 -1.578125 L 3.578125 -1.453125 L 3.421875 -1.28125 L 3.328125 -1.1875 L 3.21875 -1.140625 L 2.984375 -1.015625 L 2.640625 -1 L 2.4375 -1.015625 L 2.203125 -1.109375 L 1.96875 -1.21875 L 1.78125 -1.390625 L 1.640625 -1.625 L 1.59375 -1.765625 L 1.546875 -1.859375 L 1.5 -1.96875 L 1.484375 -2.125 L 1.484375 -2.53125 L 1.53125 -2.796875 L 1.640625 -3.03125 L 1.703125 -3.15625 L 1.859375 -3.34375 L 2.015625 -3.46875 L 2.203125 -3.5625 L 2.640625 -3.625 L 2.921875 -3.609375 L 3.140625 -3.546875 L 3.25 -3.5 L 3.34375 -3.4375 L 3.546875 -3.234375 L 3.609375 -3.140625 L 3.734375 -3.015625 L 3.890625 -2.9375 L 4.015625 -2.953125 L 4.28125 -2.953125 L 4.46875 -2.9375 L 4.671875 -2.953125 L 4.78125 -3.015625 L 4.828125 -3.140625 L 4.78125 -3.28125 L 4.734375 -3.40625 L 4.703125 -3.546875 L 4.625 -3.65625 L 4.5625 -3.765625 L 4.46875 -3.875 L 4.40625 -4 L 4.21875 -4.1875 L 3.765625 -4.46875 L 3.125 -4.6875 L 3 -4.6875 L 2.875 -4.71875 L 2.453125 -4.71875 L 1.8125 -4.59375 L 1.328125 -4.359375 L 1.125 -4.21875 L 0.84375 -3.953125 L 0.671875 -3.734375 L 0.53125 -3.546875 L 0.375 -3.171875 L 0.3125 -2.890625 L 0.234375 -2.328125 L 0.28125 -1.84375 L 0.375 -1.46875 L 0.65625 -0.890625 L 0.9375 -0.59375 L 1.234375 -0.328125 L 1.515625 -0.171875 L 1.8125 -0.046875 L 1.9375 -0.03125 L 2.0625 0.015625 L 2.1875 0.046875 Z M 2.3125 0.046875 "/></g></g></g><g fill="#000000" fill-opacity="1"><g transform="translate(77.609234, 43.807696)"><g><path d="M 2.65625 0.09375 L 3.25 0.03125 L 3.5 -0.046875 L 4.09375 -0.3125 L 4.5625 -0.765625 L 4.65625 -0.890625 L 4.90625 -1.34375 L 4.953125 -1.46875 L 4.96875 -1.59375 L 5.015625 -1.703125 L 5.046875 -1.859375 L 5.078125 -2.3125 L 5.046875 -2.78125 L 4.984375 -3.015625 L 4.9375 -3.15625 L 4.90625 -3.3125 L 4.78125 -3.53125 L 4.734375 -3.65625 L 4.65625 -3.765625 L 4.5625 -3.84375 L 4.484375 -3.96875 L 4.203125 -4.21875 L 3.859375 -4.4375 L 2.984375 -4.703125 L 2.671875 -4.71875 L 2.21875 -4.6875 L 2.078125 -4.65625 L 1.953125 -4.625 L 1.828125 -4.5625 L 1.578125 -4.5 L 1.234375 -4.296875 L 1.140625 -4.203125 L 0.9375 -4.0625 L 0.75 -3.859375 L 0.53125 -3.53125 L 0.46875 -3.421875 L 0.34375 -3.0625 L 0.28125 -2.765625 L 0.265625 -2 L 0.328125 -1.578125 L 0.4375 -1.359375 L 0.46875 -1.21875 L 0.53125 -1.09375 L 0.84375 -0.671875 L 1.125 -0.390625 L 1.578125 -0.15625 L 1.703125 -0.09375 L 2.265625 0.0625 Z M 2.484375 -1.078125 L 2.34375 -1.125 L 2.21875 -1.140625 L 2 -1.265625 L 1.796875 -1.4375 L 1.734375 -1.53125 L 1.640625 -1.625 L 1.515625 -2 L 1.484375 -2.328125 L 1.484375 -2.53125 L 1.53125 -2.78125 L 1.578125 -2.890625 L 1.65625 -2.984375 L 1.71875 -3.09375 L 1.796875 -3.203125 L 1.90625 -3.296875 L 2.09375 -3.421875 L 2.21875 -3.484375 L 2.34375 -3.515625 L 2.65625 -3.546875 L 2.96875 -3.53125 L 3.328125 -3.375 L 3.53125 -3.21875 L 3.6875 -3 L 3.828125 -2.625 L 3.859375 -2.34375 L 3.8125 -2 L 3.75 -1.734375 L 3.671875 -1.640625 L 3.625 -1.53125 L 3.546875 -1.421875 L 3.328125 -1.25 L 3.21875 -1.203125 L 3.109375 -1.140625 L 2.984375 -1.125 L 2.859375 -1.09375 Z M 2.484375 -1.078125 "/></g></g></g><g fill="#000000" fill-opacity="1"><g transform="translate(83.737885, 43.807696)"><g><path d="M 3.921875 -0.109375 L 4.09375 0 L 4.28125 0.015625 L 4.421875 -0.03125 L 4.5 -0.171875 L 4.515625 -2.59375 L 4.484375 -2.703125 L 4.484375 -3.359375 L 4.515625 -3.515625 L 4.484375 -4.4375 L 4.421875 -4.578125 L 4.296875 -4.65625 L 3.46875 -4.640625 L 3.34375 -4.5625 L 3.265625 -4.421875 L 3.265625 -4.296875 L 3.28125 -4.1875 L 3.265625 -3.90625 L 3.28125 -3.765625 L 3.265625 -2.5625 L 3.21875 -2.453125 L 3.125 -2.5 L 2.65625 -2.96875 L 2.46875 -3.125 L 1.15625 -4.4375 L 1.0625 -4.515625 L 0.90625 -4.609375 L 0.703125 -4.65625 L 0.546875 -4.578125 L 0.484375 -4.453125 L 0.484375 -2.328125 L 0.5 -2.0625 L 0.484375 -1.953125 L 0.484375 -0.171875 L 0.546875 -0.046875 L 0.6875 0 L 0.96875 0.015625 L 1.109375 0 L 1.375 0.015625 L 1.5 0.015625 L 1.640625 -0.046875 L 1.703125 -0.265625 L 1.71875 -1.9375 L 1.734375 -2.078125 L 1.765625 -2.1875 L 1.859375 -2.15625 L 1.953125 -2.03125 L 2.421875 -1.59375 L 2.5 -1.484375 L 2.609375 -1.421875 L 3.640625 -0.390625 L 3.8125 -0.203125 Z M 3.921875 -0.109375 "/></g></g></g><g fill="#000000" fill-opacity="1"><g transform="translate(89.548197, 43.807696)"><g><path d="M 1.734375 0.015625 L 2.171875 0 L 2.375 -0.0625 L 2.4375 -0.25 L 2.453125 -0.59375 L 2.4375 -0.84375 L 2.453125 -0.984375 L 2.4375 -1.25 L 2.453125 -1.375 L 2.4375 -1.515625 L 2.453125 -2.59375 L 2.4375 -2.734375 L 2.453125 -3.3125 L 2.5 -3.5 L 2.625 -3.59375 L 2.890625 -3.59375 L 3.140625 -3.5625 L 3.28125 -3.59375 L 3.390625 -3.578125 L 3.5 -3.65625 L 3.59375 -3.796875 L 3.59375 -4.421875 L 3.515625 -4.5625 L 3.390625 -4.65625 L 2.859375 -4.65625 L 2.71875 -4.640625 L 2.59375 -4.65625 L 2.046875 -4.625 L 1.921875 -4.65625 L 1.796875 -4.65625 L 1.65625 -4.640625 L 1.5 -4.65625 L 1.390625 -4.625 L 1 -4.65625 L 0.796875 -4.625 L 0.328125 -4.65625 L 0.203125 -4.59375 L 0.125 -4.4375 L 0.125 -4.296875 L 0.109375 -3.96875 L 0.125 -3.765625 L 0.1875 -3.640625 L 0.3125 -3.578125 L 0.4375 -3.59375 L 1.0625 -3.578125 L 1.203125 -3.515625 L 1.265625 -3.375 L 1.25 -3.171875 L 1.265625 -2.984375 L 1.265625 -2.703125 L 1.25 -2.515625 L 1.28125 -1.53125 L 1.265625 -1.390625 L 1.25 -0.859375 L 1.265625 -0.71875 L 1.265625 -0.328125 L 1.25 -0.203125 L 1.328125 -0.0625 L 1.53125 0 Z M 1.734375 0.015625 "/></g></g></g><g fill="#000000" fill-opacity="1"><g transform="translate(94.065249, 43.807696)"><g><path d="M 0.5 -0.265625 L 0.5625 -0.0625 L 0.75 0.015625 L 0.890625 0 L 1.109375 0.015625 L 1.203125 0 L 1.40625 0 L 1.625 -0.0625 L 1.6875 -0.25 L 1.6875 -0.59375 L 1.671875 -0.734375 L 1.6875 -1.15625 L 1.75 -1.296875 L 1.875 -1.375 L 2.265625 -1.3125 L 2.390625 -1.203125 L 2.46875 -1.0625 L 2.53125 -0.953125 L 2.65625 -0.75 L 2.796875 -0.515625 L 2.859375 -0.40625 L 2.921875 -0.28125 L 2.984375 -0.171875 L 3.140625 -0.046875 L 3.359375 0.015625 L 3.890625 0 L 4.015625 0.015625 L 4.234375 0.015625 L 4.359375 -0.046875 L 4.390625 -0.1875 L 4.328125 -0.34375 L 4.25 -0.4375 L 4.1875 -0.5625 L 3.96875 -0.890625 L 3.90625 -1.015625 L 3.6875 -1.359375 L 3.609375 -1.46875 L 3.609375 -1.625 L 3.671875 -1.765625 L 3.859375 -1.953125 L 4.109375 -2.40625 L 4.203125 -2.796875 L 4.1875 -3.21875 L 4.15625 -3.34375 L 4.046875 -3.71875 L 3.984375 -3.84375 L 3.921875 -3.9375 L 3.546875 -4.34375 L 3.3125 -4.46875 L 3.0625 -4.5625 L 2.671875 -4.640625 L 2.46875 -4.65625 L 2.265625 -4.640625 L 1.875 -4.640625 L 1.734375 -4.65625 L 1.609375 -4.65625 L 1.484375 -4.625 L 1.359375 -4.625 L 1.21875 -4.65625 L 1.078125 -4.65625 L 0.6875 -4.625 L 0.5625 -4.5625 L 0.484375 -4.375 L 0.484375 -2.859375 L 0.5 -2.71875 L 0.484375 -2.453125 L 0.484375 -2.171875 L 0.5 -2.046875 L 0.484375 -1.921875 L 0.484375 -1.390625 L 0.5 -1.25 Z M 1.875 -2.4375 L 1.734375 -2.5 L 1.6875 -2.609375 L 1.6875 -3.015625 L 1.671875 -3.125 L 1.6875 -3.40625 L 1.75 -3.53125 L 1.890625 -3.578125 L 2.015625 -3.578125 L 2.28125 -3.59375 L 2.46875 -3.5625 L 2.640625 -3.546875 L 2.765625 -3.515625 L 2.9375 -3.3125 L 2.96875 -3.203125 L 3 -3.03125 L 2.984375 -2.828125 L 2.921875 -2.703125 L 2.84375 -2.59375 L 2.78125 -2.53125 L 2.65625 -2.484375 L 2.46875 -2.4375 Z M 1.875 -2.4375 "/></g></g></g><g fill="#000000" fill-opacity="1"><g transform="translate(99.477635, 43.807696)"><g><path d="M 3.921875 0.015625 L 4.171875 0 L 4.5 0 L 4.6875 -0.03125 L 4.703125 -0.1875 L 4.65625 -0.34375 L 4.5625 -0.59375 L 4.390625 -0.9375 L 4.296875 -1.1875 L 4.15625 -1.421875 L 3.90625 -2.03125 L 3.84375 -2.125 L 3.765625 -2.25 L 3.734375 -2.390625 L 3.671875 -2.5 L 3.625 -2.609375 L 3.5 -2.84375 L 3.453125 -2.984375 L 3.015625 -3.90625 L 2.96875 -4.046875 L 2.890625 -4.15625 L 2.859375 -4.28125 L 2.734375 -4.515625 L 2.609375 -4.640625 L 2.390625 -4.703125 L 2.1875 -4.625 L 2.0625 -4.515625 L 2 -4.40625 L 1.953125 -4.265625 L 1.90625 -4.171875 L 1.640625 -3.5625 L 1.5625 -3.46875 L 1.53125 -3.328125 L 1.453125 -3.203125 L 1.421875 -3.09375 L 0.734375 -1.671875 L 0.703125 -1.515625 L 0.625 -1.421875 L 0.578125 -1.28125 L 0.46875 -1.078125 L 0.359375 -0.8125 L 0.296875 -0.71875 L 0.265625 -0.59375 L 0.125 -0.328125 L 0.09375 -0.203125 L 0.125 -0.03125 L 0.25 0 L 1.015625 0 L 1.171875 -0.046875 L 1.296875 -0.171875 L 1.421875 -0.390625 L 1.546875 -0.515625 L 1.6875 -0.59375 L 1.8125 -0.578125 L 2.078125 -0.59375 L 2.203125 -0.578125 L 2.96875 -0.578125 L 3.125 -0.59375 L 3.265625 -0.515625 L 3.390625 -0.40625 L 3.453125 -0.28125 L 3.5 -0.171875 L 3.625 -0.0625 L 3.78125 0 Z M 2.40625 -1.640625 L 2.28125 -1.671875 L 2.125 -1.65625 L 2.015625 -1.703125 L 2.015625 -1.828125 L 2.328125 -2.546875 L 2.390625 -2.609375 L 2.484375 -2.546875 L 2.796875 -1.8125 L 2.78125 -1.703125 L 2.671875 -1.640625 Z M 2.40625 -1.640625 "/></g></g></g><g fill="#000000" fill-opacity="1"><g transform="translate(105.102249, 43.807696)"><g><path d="M 2.3125 0.046875 L 2.640625 0.078125 L 3.109375 0.046875 L 3.5 -0.03125 L 3.625 -0.09375 L 3.765625 -0.140625 L 3.875 -0.203125 L 4.203125 -0.4375 L 4.390625 -0.625 L 4.53125 -0.8125 L 4.671875 -1.0625 L 4.84375 -1.5625 L 4.8125 -1.6875 L 4.671875 -1.765625 L 4.296875 -1.734375 L 4.171875 -1.765625 L 4.03125 -1.75 L 3.90625 -1.765625 L 3.75 -1.6875 L 3.640625 -1.578125 L 3.578125 -1.453125 L 3.421875 -1.28125 L 3.328125 -1.1875 L 3.21875 -1.140625 L 2.984375 -1.015625 L 2.640625 -1 L 2.4375 -1.015625 L 2.203125 -1.109375 L 1.96875 -1.21875 L 1.78125 -1.390625 L 1.640625 -1.625 L 1.59375 -1.765625 L 1.546875 -1.859375 L 1.5 -1.96875 L 1.484375 -2.125 L 1.484375 -2.53125 L 1.53125 -2.796875 L 1.640625 -3.03125 L 1.703125 -3.15625 L 1.859375 -3.34375 L 2.015625 -3.46875 L 2.203125 -3.5625 L 2.640625 -3.625 L 2.921875 -3.609375 L 3.140625 -3.546875 L 3.25 -3.5 L 3.34375 -3.4375 L 3.546875 -3.234375 L 3.609375 -3.140625 L 3.734375 -3.015625 L 3.890625 -2.9375 L 4.015625 -2.953125 L 4.28125 -2.953125 L 4.46875 -2.9375 L 4.671875 -2.953125 L 4.78125 -3.015625 L 4.828125 -3.140625 L 4.78125 -3.28125 L 4.734375 -3.40625 L 4.703125 -3.546875 L 4.625 -3.65625 L 4.5625 -3.765625 L 4.46875 -3.875 L 4.40625 -4 L 4.21875 -4.1875 L 3.765625 -4.46875 L 3.125 -4.6875 L 3 -4.6875 L 2.875 -4.71875 L 2.453125 -4.71875 L 1.8125 -4.59375 L 1.328125 -4.359375 L 1.125 -4.21875 L 0.84375 -3.953125 L 0.671875 -3.734375 L 0.53125 -3.546875 L 0.375 -3.171875 L 0.3125 -2.890625 L 0.234375 -2.328125 L 0.28125 -1.84375 L 0.375 -1.46875 L 0.65625 -0.890625 L 0.9375 -0.59375 L 1.234375 -0.328125 L 1.515625 -0.171875 L 1.8125 -0.046875 L 1.9375 -0.03125 L 2.0625 0.015625 L 2.1875 0.046875 Z M 2.3125 0.046875 "/></g></g></g><g fill="#000000" fill-opacity="1"><g transform="translate(110.972249, 43.807696)"><g><path d="M 1.734375 0.015625 L 2.171875 0 L 2.375 -0.0625 L 2.4375 -0.25 L 2.453125 -0.59375 L 2.4375 -0.84375 L 2.453125 -0.984375 L 2.4375 -1.25 L 2.453125 -1.375 L 2.4375 -1.515625 L 2.453125 -2.59375 L 2.4375 -2.734375 L 2.453125 -3.3125 L 2.5 -3.5 L 2.625 -3.59375 L 2.890625 -3.59375 L 3.140625 -3.5625 L 3.28125 -3.59375 L 3.390625 -3.578125 L 3.5 -3.65625 L 3.59375 -3.796875 L 3.59375 -4.421875 L 3.515625 -4.5625 L 3.390625 -4.65625 L 2.859375 -4.65625 L 2.71875 -4.640625 L 2.59375 -4.65625 L 2.046875 -4.625 L 1.921875 -4.65625 L 1.796875 -4.65625 L 1.65625 -4.640625 L 1.5 -4.65625 L 1.390625 -4.625 L 1 -4.65625 L 0.796875 -4.625 L 0.328125 -4.65625 L 0.203125 -4.59375 L 0.125 -4.4375 L 0.125 -4.296875 L 0.109375 -3.96875 L 0.125 -3.765625 L 0.1875 -3.640625 L 0.3125 -3.578125 L 0.4375 -3.59375 L 1.0625 -3.578125 L 1.203125 -3.515625 L 1.265625 -3.375 L 1.25 -3.171875 L 1.265625 -2.984375 L 1.265625 -2.703125 L 1.25 -2.515625 L 1.28125 -1.53125 L 1.265625 -1.390625 L 1.25 -0.859375 L 1.265625 -0.71875 L 1.265625 -0.328125 L 1.25 -0.203125 L 1.328125 -0.0625 L 1.53125 0 Z M 1.734375 0.015625 "/></g></g></g><g fill="#000000" fill-opacity="1"><g transform="translate(115.489301, 43.807696)"><g><path d="M 2.21875 0.03125 L 2.484375 0.015625 L 2.609375 -0.046875 L 2.671875 -0.171875 L 2.671875 -0.84375 L 2.59375 -0.96875 L 2.453125 -1.03125 L 2.3125 -1.03125 L 2.15625 -1.09375 L 2.078125 -1.234375 L 2.09375 -1.375 L 2.078125 -2.09375 L 2.09375 -2.25 L 2.078125 -2.71875 L 2.09375 -3.390625 L 2.140625 -3.546875 L 2.296875 -3.609375 L 2.421875 -3.625 L 2.5625 -3.671875 L 2.625 -3.78125 L 2.640625 -4.4375 L 2.5625 -4.5625 L 2.4375 -4.640625 L 1.640625 -4.640625 L 1.515625 -4.65625 L 1.375 -4.625 L 0.84375 -4.625 L 0.703125 -4.65625 L 0.5625 -4.65625 L 0.421875 -4.578125 L 0.359375 -4.421875 L 0.375 -3.9375 L 0.359375 -3.8125 L 0.4375 -3.671875 L 0.578125 -3.59375 L 0.71875 -3.59375 L 0.84375 -3.515625 L 0.90625 -3.34375 L 0.921875 -1.296875 L 0.84375 -1.109375 L 0.40625 -0.96875 L 0.34375 -0.84375 L 0.3125 -0.234375 L 0.390625 -0.0625 L 0.515625 0 L 0.640625 0 L 0.765625 -0.015625 L 0.96875 0.015625 L 1.171875 0 L 1.296875 0 L 1.5625 0.015625 L 1.765625 0 L 2.09375 0 Z M 2.21875 0.03125 "/></g></g></g><g fill="#000000" fill-opacity="1"><g transform="translate(119.309978, 43.807696)"><g><path d="M 3.921875 -0.109375 L 4.09375 0 L 4.28125 0.015625 L 4.421875 -0.03125 L 4.5 -0.171875 L 4.515625 -2.59375 L 4.484375 -2.703125 L 4.484375 -3.359375 L 4.515625 -3.515625 L 4.484375 -4.4375 L 4.421875 -4.578125 L 4.296875 -4.65625 L 3.46875 -4.640625 L 3.34375 -4.5625 L 3.265625 -4.421875 L 3.265625 -4.296875 L 3.28125 -4.1875 L 3.265625 -3.90625 L 3.28125 -3.765625 L 3.265625 -2.5625 L 3.21875 -2.453125 L 3.125 -2.5 L 2.65625 -2.96875 L 2.46875 -3.125 L 1.15625 -4.4375 L 1.0625 -4.515625 L 0.90625 -4.609375 L 0.703125 -4.65625 L 0.546875 -4.578125 L 0.484375 -4.453125 L 0.484375 -2.328125 L 0.5 -2.0625 L 0.484375 -1.953125 L 0.484375 -0.171875 L 0.546875 -0.046875 L 0.6875 0 L 0.96875 0.015625 L 1.109375 0 L 1.375 0.015625 L 1.5 0.015625 L 1.640625 -0.046875 L 1.703125 -0.265625 L 1.71875 -1.9375 L 1.734375 -2.078125 L 1.765625 -2.1875 L 1.859375 -2.15625 L 1.953125 -2.03125 L 2.421875 -1.59375 L 2.5 -1.484375 L 2.609375 -1.421875 L 3.640625 -0.390625 L 3.8125 -0.203125 Z M 3.921875 -0.109375 "/></g></g></g><g fill="#000000" fill-opacity="1"><g transform="translate(125.120291, 43.807696)"><g><path d="M 2.296875 0.0625 L 2.96875 0.0625 L 3.46875 -0.046875 L 3.9375 -0.296875 L 4.140625 -0.453125 L 4.25 -0.5625 L 4.34375 -0.640625 L 4.421875 -0.734375 L 4.484375 -0.84375 L 4.546875 -0.96875 L 4.625 -1.0625 L 4.765625 -1.453125 L 4.8125 -1.703125 L 4.828125 -1.8125 L 4.84375 -1.9375 L 4.84375 -2.0625 L 4.859375 -2.1875 L 4.84375 -2.4375 L 4.78125 -2.5625 L 4.65625 -2.625 L 4.515625 -2.625 L 4.375 -2.65625 L 3.484375 -2.625 L 3.078125 -2.65625 L 2.828125 -2.640625 L 2.703125 -2.5625 L 2.640625 -2.4375 L 2.640625 -1.8125 L 2.703125 -1.703125 L 2.8125 -1.640625 L 3.015625 -1.625 L 3.34375 -1.640625 L 3.453125 -1.625 L 3.5625 -1.578125 L 3.578125 -1.46875 L 3.515625 -1.359375 L 3.40625 -1.234375 L 3.328125 -1.171875 L 3.09375 -1.078125 L 2.84375 -1.015625 L 2.671875 -1.015625 L 2.328125 -1.0625 L 1.96875 -1.203125 L 1.765625 -1.390625 L 1.703125 -1.484375 L 1.578125 -1.71875 L 1.515625 -1.90625 L 1.484375 -2.125 L 1.484375 -2.515625 L 1.53125 -2.765625 L 1.640625 -3.015625 L 1.84375 -3.328125 L 2.078125 -3.484375 L 2.1875 -3.546875 L 2.3125 -3.5625 L 2.421875 -3.609375 L 2.828125 -3.625 L 3.078125 -3.5625 L 3.203125 -3.5 L 3.328125 -3.421875 L 3.40625 -3.328125 L 3.5 -3.21875 L 3.625 -3.109375 L 3.796875 -3.0625 L 4 -3.0625 L 4.203125 -3.078125 L 4.515625 -3.0625 L 4.6875 -3.140625 L 4.71875 -3.25 L 4.625 -3.515625 L 4.5625 -3.640625 L 4.296875 -4.03125 L 4.15625 -4.140625 L 4.046875 -4.25 L 3.953125 -4.328125 L 3.484375 -4.5625 L 3.34375 -4.59375 L 3.03125 -4.6875 L 2.421875 -4.703125 L 2.28125 -4.703125 L 2.171875 -4.65625 L 2.046875 -4.65625 L 1.53125 -4.46875 L 1.171875 -4.25 L 0.875 -3.984375 L 0.796875 -3.875 L 0.6875 -3.78125 L 0.625 -3.671875 L 0.375 -3.1875 L 0.25 -2.53125 L 0.25 -2.3125 L 0.28125 -1.84375 L 0.46875 -1.21875 L 0.578125 -1 L 0.734375 -0.765625 L 1 -0.484375 L 1.21875 -0.34375 L 1.6875 -0.078125 L 1.796875 -0.046875 L 2.171875 0.03125 Z M 2.296875 0.0625 "/></g></g></g><g fill="#000000" fill-opacity="1"><g transform="translate(131.010192, 43.807696)"><g/></g></g><g fill="#000000" fill-opacity="1"><g transform="translate(133.617192, 43.807696)"><g><path d="M 2.3125 0.015625 L 3.265625 0 L 3.40625 -0.046875 L 3.46875 -0.1875 L 3.46875 -0.859375 L 3.40625 -1 L 3.265625 -1.0625 L 3.109375 -1.046875 L 2.984375 -1.0625 L 2.640625 -1.0625 L 2.421875 -1.046875 L 2.296875 -1.0625 L 2.140625 -1.046875 L 2.015625 -1.0625 L 1.875 -1.0625 L 1.734375 -1.125 L 1.6875 -1.234375 L 1.6875 -1.65625 L 1.734375 -1.796875 L 1.859375 -1.875 L 2.0625 -1.875 L 2.265625 -1.859375 L 2.53125 -1.875 L 2.796875 -1.859375 L 2.921875 -1.875 L 3.078125 -1.875 L 3.21875 -1.921875 L 3.265625 -2.0625 L 3.28125 -2.65625 L 3.21875 -2.84375 L 3.0625 -2.921875 L 2.53125 -2.921875 L 2.25 -2.9375 L 1.859375 -2.921875 L 1.734375 -2.984375 L 1.671875 -3.1875 L 1.671875 -3.390625 L 1.734375 -3.515625 L 1.875 -3.578125 L 2 -3.5625 L 2.125 -3.59375 L 3.078125 -3.578125 L 3.203125 -3.59375 L 3.34375 -3.671875 L 3.40625 -3.78125 L 3.40625 -4.453125 L 3.34375 -4.578125 L 3.203125 -4.625 L 3.0625 -4.625 L 2.953125 -4.65625 L 2.40625 -4.65625 L 2.265625 -4.640625 L 2.125 -4.65625 L 2.015625 -4.640625 L 1.890625 -4.65625 L 1.34375 -4.640625 L 1.203125 -4.65625 L 1.078125 -4.640625 L 0.96875 -4.65625 L 0.828125 -4.640625 L 0.703125 -4.640625 L 0.5625 -4.59375 L 0.484375 -4.453125 L 0.5 -4.203125 L 0.484375 -3.921875 L 0.5 -3.78125 L 0.484375 -3.125 L 0.5 -2.984375 L 0.484375 -2.859375 L 0.484375 -2.3125 L 0.5 -2.203125 L 0.5 -1.125 L 0.484375 -1 L 0.5 -0.859375 L 0.484375 -0.40625 L 0.5 -0.265625 L 0.546875 -0.078125 L 0.75 0 L 1.234375 0.015625 L 1.375 0 L 1.5 0 L 1.765625 -0.015625 L 1.890625 0.015625 L 2.046875 0.015625 L 2.171875 0 Z M 2.3125 0.015625 "/></g></g></g><g fill="#000000" fill-opacity="1"><g transform="translate(138.22709, 43.807696)"><g><path d="M 1.78125 0.0625 L 2.3125 0.078125 L 2.4375 0.0625 L 2.578125 0.03125 L 2.703125 0 L 2.84375 -0.046875 L 2.96875 -0.0625 L 3.09375 -0.125 L 3.546875 -0.390625 L 3.734375 -0.59375 L 3.796875 -0.6875 L 3.875 -0.828125 L 3.90625 -0.953125 L 3.953125 -1.0625 L 3.984375 -1.390625 L 3.984375 -1.609375 L 3.875 -2 L 3.8125 -2.09375 L 3.625 -2.296875 L 3.515625 -2.40625 L 3.40625 -2.453125 L 3.28125 -2.53125 L 2.765625 -2.6875 L 2.640625 -2.703125 L 2.5 -2.71875 L 2.359375 -2.75 L 2.171875 -2.75 L 1.8125 -2.8125 L 1.578125 -2.9375 L 1.46875 -3.03125 L 1.453125 -3.234375 L 1.484375 -3.40625 L 1.5625 -3.5 L 1.65625 -3.5625 L 1.765625 -3.625 L 1.890625 -3.65625 L 2.09375 -3.65625 L 2.3125 -3.625 L 2.4375 -3.59375 L 2.546875 -3.515625 L 2.65625 -3.421875 L 2.765625 -3.296875 L 2.90625 -3.203125 L 3.21875 -3.234375 L 3.40625 -3.21875 L 3.53125 -3.21875 L 3.65625 -3.203125 L 3.78125 -3.296875 L 3.828125 -3.40625 L 3.8125 -3.546875 L 3.796875 -3.671875 L 3.609375 -4.015625 L 3.453125 -4.203125 L 3.015625 -4.515625 L 2.65625 -4.640625 L 2.390625 -4.6875 L 1.875 -4.703125 L 1.734375 -4.671875 L 1.59375 -4.65625 L 1.484375 -4.640625 L 1.234375 -4.5625 L 1 -4.421875 L 0.6875 -4.203125 L 0.453125 -3.890625 L 0.328125 -3.53125 L 0.3125 -3.203125 L 0.3125 -3 L 0.359375 -2.734375 L 0.46875 -2.5 L 0.71875 -2.203125 L 1.171875 -1.953125 L 1.40625 -1.875 L 2.453125 -1.75 L 2.6875 -1.640625 L 2.78125 -1.5625 L 2.8125 -1.390625 L 2.765625 -1.234375 L 2.671875 -1.125 L 2.453125 -1.03125 L 2.25 -1.015625 L 2.125 -1 L 1.78125 -1.03125 L 1.5625 -1.15625 L 1.34375 -1.40625 L 1.203125 -1.453125 L 1.09375 -1.4375 L 0.96875 -1.46875 L 0.453125 -1.4375 L 0.328125 -1.375 L 0.28125 -1.234375 L 0.296875 -1.109375 L 0.328125 -0.96875 L 0.359375 -0.859375 L 0.484375 -0.609375 L 0.578125 -0.53125 L 0.671875 -0.421875 L 0.90625 -0.28125 L 1 -0.171875 L 1.25 -0.078125 L 1.515625 0.015625 Z M 1.78125 0.0625 "/></g></g></g><g fill="#000000" fill-opacity="1"><g transform="translate(143.268078, 43.807696)"><g><path d="M 1.734375 0.015625 L 2.171875 0 L 2.375 -0.0625 L 2.4375 -0.25 L 2.453125 -0.59375 L 2.4375 -0.84375 L 2.453125 -0.984375 L 2.4375 -1.25 L 2.453125 -1.375 L 2.4375 -1.515625 L 2.453125 -2.59375 L 2.4375 -2.734375 L 2.453125 -3.3125 L 2.5 -3.5 L 2.625 -3.59375 L 2.890625 -3.59375 L 3.140625 -3.5625 L 3.28125 -3.59375 L 3.390625 -3.578125 L 3.5 -3.65625 L 3.59375 -3.796875 L 3.59375 -4.421875 L 3.515625 -4.5625 L 3.390625 -4.65625 L 2.859375 -4.65625 L 2.71875 -4.640625 L 2.59375 -4.65625 L 2.046875 -4.625 L 1.921875 -4.65625 L 1.796875 -4.65625 L 1.65625 -4.640625 L 1.5 -4.65625 L 1.390625 -4.625 L 1 -4.65625 L 0.796875 -4.625 L 0.328125 -4.65625 L 0.203125 -4.59375 L 0.125 -4.4375 L 0.125 -4.296875 L 0.109375 -3.96875 L 0.125 -3.765625 L 0.1875 -3.640625 L 0.3125 -3.578125 L 0.4375 -3.59375 L 1.0625 -3.578125 L 1.203125 -3.515625 L 1.265625 -3.375 L 1.25 -3.171875 L 1.265625 -2.984375 L 1.265625 -2.703125 L 1.25 -2.515625 L 1.28125 -1.53125 L 1.265625 -1.390625 L 1.25 -0.859375 L 1.265625 -0.71875 L 1.265625 -0.328125 L 1.25 -0.203125 L 1.328125 -0.0625 L 1.53125 0 Z M 1.734375 0.015625 "/></g></g></g><g fill="#000000" fill-opacity="1"><g transform="translate(147.785127, 43.807696)"><g><path d="M 0.84375 0.03125 L 1 0.03125 L 1.078125 0.015625 L 1.140625 0.015625 L 1.21875 -0.015625 L 1.296875 -0.0625 L 1.359375 -0.09375 L 1.421875 -0.140625 L 1.46875 -0.21875 L 1.515625 -0.28125 L 1.578125 -0.484375 L 1.59375 -0.640625 L 1.5625 -0.71875 L 1.546875 -0.796875 L 1.5 -0.875 L 1.46875 -0.9375 L 1.421875 -0.984375 L 1.375 -1.046875 L 1.296875 -1.09375 L 1.234375 -1.125 L 1.15625 -1.140625 L 1.0625 -1.171875 L 1 -1.1875 L 0.84375 -1.171875 L 0.703125 -1.15625 L 0.609375 -1.125 L 0.5625 -1.09375 L 0.421875 -0.984375 L 0.3125 -0.875 L 0.296875 -0.796875 L 0.265625 -0.734375 L 0.265625 -0.40625 L 0.296875 -0.34375 L 0.328125 -0.265625 L 0.359375 -0.21875 L 0.4375 -0.15625 L 0.46875 -0.09375 L 0.625 -0.015625 L 0.6875 0 L 0.765625 0.03125 Z M 0.84375 0.03125 "/></g></g></g><g fill="#000000" fill-opacity="1"><g transform="translate(150.478342, 43.807696)"><g/></g></g><g fill="#000000" fill-opacity="1"><g transform="translate(153.085343, 43.807696)"><g><path d="M 1.75 1.015625 L 1.90625 1.046875 L 2.046875 1 L 2.3125 0.734375 L 2.390625 0.671875 L 2.4375 0.515625 L 2.375 0.40625 L 2.296875 0.296875 L 2.203125 0.21875 L 1.90625 -0.21875 L 1.640625 -0.828125 L 1.5 -1.609375 L 1.46875 -1.859375 L 1.46875 -1.96875 L 1.4375 -2.125 L 1.484375 -3.046875 L 1.515625 -3.15625 L 1.59375 -3.5625 L 1.640625 -3.671875 L 1.65625 -3.8125 L 1.703125 -3.921875 L 1.734375 -4.046875 L 1.90625 -4.390625 L 2.046875 -4.625 L 2.203125 -4.828125 L 2.390625 -5 L 2.4375 -5.140625 L 2.40625 -5.28125 L 2.3125 -5.359375 L 2.140625 -5.546875 L 2.046875 -5.625 L 1.90625 -5.671875 L 1.703125 -5.578125 L 1.546875 -5.453125 L 1.46875 -5.375 L 1.109375 -5 L 0.875 -4.640625 L 0.640625 -4.171875 L 0.40625 -3.546875 L 0.390625 -3.4375 L 0.359375 -3.296875 L 0.3125 -2.921875 L 0.28125 -2.796875 L 0.28125 -2.640625 L 0.265625 -2.53125 L 0.265625 -1.984375 L 0.28125 -1.859375 L 0.296875 -1.71875 L 0.328125 -1.59375 L 0.34375 -1.4375 L 0.4375 -1.0625 L 0.453125 -0.9375 L 0.5 -0.796875 L 0.6875 -0.3125 L 0.875 0.046875 L 1.046875 0.25 L 1.109375 0.375 L 1.640625 0.9375 Z M 1.75 1.015625 "/></g></g></g><g fill="#000000" fill-opacity="1"><g transform="translate(156.262706, 43.807696)"><g><path d="M 3.921875 -0.109375 L 4.09375 0 L 4.28125 0.015625 L 4.421875 -0.03125 L 4.5 -0.171875 L 4.515625 -2.59375 L 4.484375 -2.703125 L 4.484375 -3.359375 L 4.515625 -3.515625 L 4.484375 -4.4375 L 4.421875 -4.578125 L 4.296875 -4.65625 L 3.46875 -4.640625 L 3.34375 -4.5625 L 3.265625 -4.421875 L 3.265625 -4.296875 L 3.28125 -4.1875 L 3.265625 -3.90625 L 3.28125 -3.765625 L 3.265625 -2.5625 L 3.21875 -2.453125 L 3.125 -2.5 L 2.65625 -2.96875 L 2.46875 -3.125 L 1.15625 -4.4375 L 1.0625 -4.515625 L 0.90625 -4.609375 L 0.703125 -4.65625 L 0.546875 -4.578125 L 0.484375 -4.453125 L 0.484375 -2.328125 L 0.5 -2.0625 L 0.484375 -1.953125 L 0.484375 -0.171875 L 0.546875 -0.046875 L 0.6875 0 L 0.96875 0.015625 L 1.109375 0 L 1.375 0.015625 L 1.5 0.015625 L 1.640625 -0.046875 L 1.703125 -0.265625 L 1.71875 -1.9375 L 1.734375 -2.078125 L 1.765625 -2.1875 L 1.859375 -2.15625 L 1.953125 -2.03125 L 2.421875 -1.59375 L 2.5 -1.484375 L 2.609375 -1.421875 L 3.640625 -0.390625 L 3.8125 -0.203125 Z M 3.921875 -0.109375 "/></g></g></g><g fill="#000000" fill-opacity="1"><g transform="translate(162.073016, 43.807696)"><g><path d="M 0.6875 0.015625 L 0.828125 0 L 1.078125 0.015625 L 1.234375 0 L 1.4375 0 L 1.625 -0.078125 L 1.703125 -0.1875 L 1.6875 -0.890625 L 1.703125 -1.09375 L 1.703125 -1.234375 L 1.71875 -1.46875 L 1.703125 -1.625 L 1.703125 -1.875 L 1.765625 -1.9375 L 1.828125 -1.90625 L 1.9375 -1.828125 L 2.015625 -1.734375 L 2.28125 -1.453125 L 2.375 -1.34375 L 2.546875 -1.171875 L 2.6875 -1.078125 L 2.828125 -1.0625 L 2.96875 -1.171875 L 3.140625 -1.34375 L 3.328125 -1.5625 L 3.421875 -1.640625 L 3.6875 -1.90625 L 3.78125 -1.953125 L 3.828125 -1.859375 L 3.8125 -1.484375 L 3.84375 -1.21875 L 3.828125 -0.96875 L 3.84375 -0.71875 L 3.828125 -0.59375 L 3.84375 -0.296875 L 3.84375 -0.203125 L 3.890625 -0.046875 L 4.03125 0 L 4.828125 0.015625 L 4.96875 -0.046875 L 5.046875 -0.25 L 5.03125 -0.59375 L 5.046875 -0.71875 L 5.03125 -2.71875 L 5.046875 -2.859375 L 5.046875 -3.640625 L 5.03125 -3.9375 L 5.046875 -4.046875 L 5.03125 -4.3125 L 5.046875 -4.4375 L 4.96875 -4.578125 L 4.828125 -4.65625 L 4.640625 -4.59375 L 4.5 -4.515625 L 4.21875 -4.21875 L 4.125 -4.109375 L 4.046875 -4.03125 L 3.953125 -3.921875 L 3.375 -3.328125 L 3.28125 -3.203125 L 2.875 -2.796875 L 2.765625 -2.71875 L 2.625 -2.765625 L 2.546875 -2.875 L 2.453125 -2.96875 L 2.328125 -3.125 L 2.1875 -3.265625 L 1.578125 -3.9375 L 1.484375 -4.015625 L 1.3125 -4.21875 L 1.203125 -4.3125 L 1.03125 -4.484375 L 0.890625 -4.609375 L 0.703125 -4.65625 L 0.546875 -4.59375 L 0.484375 -4.453125 L 0.5 -4.046875 L 0.484375 -3.78125 L 0.484375 -2.609375 L 0.5 -2.46875 L 0.484375 -1.796875 L 0.484375 -0.203125 L 0.5625 -0.0625 Z M 0.6875 0.015625 "/></g></g></g><g fill="#000000" fill-opacity="1"><g transform="translate(168.42716, 43.807696)"><g><path d="M 2.3125 0.046875 L 2.640625 0.078125 L 3.109375 0.046875 L 3.5 -0.03125 L 3.625 -0.09375 L 3.765625 -0.140625 L 3.875 -0.203125 L 4.203125 -0.4375 L 4.390625 -0.625 L 4.53125 -0.8125 L 4.671875 -1.0625 L 4.84375 -1.5625 L 4.8125 -1.6875 L 4.671875 -1.765625 L 4.296875 -1.734375 L 4.171875 -1.765625 L 4.03125 -1.75 L 3.90625 -1.765625 L 3.75 -1.6875 L 3.640625 -1.578125 L 3.578125 -1.453125 L 3.421875 -1.28125 L 3.328125 -1.1875 L 3.21875 -1.140625 L 2.984375 -1.015625 L 2.640625 -1 L 2.4375 -1.015625 L 2.203125 -1.109375 L 1.96875 -1.21875 L 1.78125 -1.390625 L 1.640625 -1.625 L 1.59375 -1.765625 L 1.546875 -1.859375 L 1.5 -1.96875 L 1.484375 -2.125 L 1.484375 -2.53125 L 1.53125 -2.796875 L 1.640625 -3.03125 L 1.703125 -3.15625 L 1.859375 -3.34375 L 2.015625 -3.46875 L 2.203125 -3.5625 L 2.640625 -3.625 L 2.921875 -3.609375 L 3.140625 -3.546875 L 3.25 -3.5 L 3.34375 -3.4375 L 3.546875 -3.234375 L 3.609375 -3.140625 L 3.734375 -3.015625 L 3.890625 -2.9375 L 4.015625 -2.953125 L 4.28125 -2.953125 L 4.46875 -2.9375 L 4.671875 -2.953125 L 4.78125 -3.015625 L 4.828125 -3.140625 L 4.78125 -3.28125 L 4.734375 -3.40625 L 4.703125 -3.546875 L 4.625 -3.65625 L 4.5625 -3.765625 L 4.46875 -3.875 L 4.40625 -4 L 4.21875 -4.1875 L 3.765625 -4.46875 L 3.125 -4.6875 L 3 -4.6875 L 2.875 -4.71875 L 2.453125 -4.71875 L 1.8125 -4.59375 L 1.328125 -4.359375 L 1.125 -4.21875 L 0.84375 -3.953125 L 0.671875 -3.734375 L 0.53125 -3.546875 L 0.375 -3.171875 L 0.3125 -2.890625 L 0.234375 -2.328125 L 0.28125 -1.84375 L 0.375 -1.46875 L 0.65625 -0.890625 L 0.9375 -0.59375 L 1.234375 -0.328125 L 1.515625 -0.171875 L 1.8125 -0.046875 L 1.9375 -0.03125 L 2.0625 0.015625 L 2.1875 0.046875 Z M 2.3125 0.046875 "/></g></g></g><g fill="#000000" fill-opacity="1"><g transform="translate(174.297155, 43.807696)"><g><path d="M 0.484375 1.015625 L 0.625 1.03125 L 0.765625 1.015625 L 0.875 0.90625 L 0.96875 0.859375 L 1.0625 0.75 L 1.171875 0.671875 L 1.25 0.5625 L 1.328125 0.4375 L 1.421875 0.359375 L 1.703125 -0.09375 L 1.765625 -0.21875 L 1.84375 -0.3125 L 1.890625 -0.453125 L 2.03125 -0.796875 L 2.15625 -1.328125 L 2.265625 -2.3125 L 2.234375 -2.921875 L 2.171875 -3.171875 L 2.171875 -3.3125 L 2.078125 -3.703125 L 2.015625 -3.828125 L 1.984375 -3.953125 L 1.78125 -4.421875 L 1.5 -4.875 L 1.25 -5.1875 L 0.96875 -5.484375 L 0.875 -5.546875 L 0.78125 -5.640625 L 0.625 -5.6875 L 0.484375 -5.65625 L 0.390625 -5.53125 L 0.296875 -5.46875 L 0.171875 -5.3125 L 0.09375 -5.15625 L 0.140625 -5.015625 L 0.421875 -4.734375 L 0.484375 -4.625 L 0.546875 -4.53125 L 0.609375 -4.40625 L 0.6875 -4.296875 L 0.953125 -3.5625 L 0.984375 -3.296875 L 1.015625 -3.1875 L 1.078125 -2.65625 L 1.0625 -2.515625 L 1.078125 -2.125 L 1.046875 -1.59375 L 0.875 -0.8125 L 0.828125 -0.71875 L 0.796875 -0.59375 L 0.6875 -0.34375 L 0.484375 0 L 0.40625 0.09375 L 0.328125 0.203125 L 0.140625 0.390625 L 0.09375 0.515625 L 0.125 0.65625 L 0.21875 0.71875 L 0.390625 0.921875 Z M 0.484375 1.015625 "/></g></g></g><path fill="#000000" d="M 26.429688 31.089844 L 26.429688 28.503906 C 28.179688 27.757812 29.988281 27.191406 31.851562 26.8125 C 33.71875 26.429688 35.601562 26.242188 37.507812 26.242188 C 39.410156 26.242188 41.292969 26.429688 43.160156 26.8125 C 45.023438 27.191406 46.832031 27.757812 48.585938 28.503906 L 48.585938 30.746094 L 56.105469 29.363281 L 51.292969 29.386719 L 51.292969 26.746094 L 50.230469 26.265625 C 48.230469 25.363281 46.15625 24.683594 44.011719 24.222656 C 41.867188 23.761719 39.695312 23.53125 37.5 23.53125 C 35.304688 23.53125 33.136719 23.761719 30.988281 24.222656 C 28.84375 24.683594 26.769531 25.363281 24.769531 26.265625 L 23.707031 26.746094 L 23.707031 29.386719 L 18.183594 29.363281 Z M 26.429688 31.089844 " fill-opacity="1" fill-rule="nonzero"/><g clip-path="url(#09c2f60dd8)"><path fill="#000000" d="M 46.859375 39.765625 C 46.609375 40.316406 46.332031 40.851562 46.03125 41.378906 C 44.332031 44.324219 42.007812 46.652344 39.0625 48.355469 L 37.507812 49.25 L 35.953125 48.355469 C 33.003906 46.652344 30.675781 44.324219 28.972656 41.378906 L 28.835938 41.136719 C 28.394531 40.714844 27.992188 40.261719 27.621094 39.773438 L 25.207031 39.773438 C 26.105469 42.074219 27.359375 44.164062 28.96875 46.035156 C 30.578125 47.910156 32.453125 49.464844 34.589844 50.699219 L 37.507812 52.378906 L 40.421875 50.699219 C 42.5625 49.464844 44.4375 47.910156 46.050781 46.035156 C 47.660156 44.160156 48.917969 42.070312 49.816406 39.765625 Z M 46.859375 39.765625 " fill-opacity="1" fill-rule="nonzero"/></g><g clip-path="url(#2339902c6d)"><path fill="#da880a" d="M 62.632812 32.898438 C 64.324219 32.796875 66.765625 28.304688 66.765625 28.304688 L 45.578125 32.191406 C 44.792969 32.335938 44.027344 32.265625 43.28125 31.980469 L 38.757812 30.238281 C 38.34375 30.078125 37.917969 30.027344 37.480469 30.089844 C 37.042969 30.152344 36.644531 30.3125 36.289062 30.578125 L 32.148438 33.691406 C 32.070312 33.75 32.03125 33.828125 32.03125 33.929688 C 32.03125 34.027344 32.070312 34.105469 32.148438 34.164062 C 32.535156 34.453125 32.972656 34.597656 33.453125 34.597656 C 33.933594 34.597656 34.371094 34.453125 34.757812 34.164062 L 36.449219 32.894531 C 36.871094 32.582031 37.339844 32.425781 37.867188 32.425781 C 38.390625 32.425781 38.859375 32.582031 39.28125 32.894531 L 45.292969 37.421875 C 45.6875 37.707031 45.929688 38.09375 46.011719 38.574219 L 46.011719 38.585938 C 46.050781 38.792969 46.175781 38.890625 46.386719 38.886719 C 46.386719 38.886719 53.453125 39.214844 55.761719 39.46875 C 56.882812 39.59375 59.261719 37.332031 59.261719 37.332031 L 53.328125 36.320312 C 55.636719 36.492188 58.621094 36.695312 60.179688 36.695312 C 61.515625 36.695312 64 33.597656 64 33.597656 L 49.871094 33.691406 C 49.871094 33.691406 59.132812 33.109375 62.632812 32.898438 Z M 62.632812 32.898438 " fill-opacity="1" fill-rule="nonzero"/></g><g clip-path="url(#61311bca14)"><path fill="#da880a" d="M 45.160156 38.761719 C 45.121094 38.492188 44.992188 38.277344 44.769531 38.121094 L 38.746094 33.59375 C 38.480469 33.394531 38.183594 33.292969 37.851562 33.292969 C 37.523438 33.292969 37.226562 33.394531 36.960938 33.59375 L 35.269531 34.863281 C 35.003906 35.058594 34.714844 35.207031 34.402344 35.3125 C 34.089844 35.414062 33.769531 35.46875 33.441406 35.46875 C 33.113281 35.46875 32.792969 35.414062 32.480469 35.3125 C 32.167969 35.207031 31.878906 35.058594 31.617188 34.863281 C 31.292969 34.617188 31.136719 34.292969 31.148438 33.890625 C 31.167969 33.503906 31.335938 33.195312 31.652344 32.964844 L 34.566406 30.78125 C 34.699219 30.703125 34.730469 30.59375 34.664062 30.453125 C 34.59375 30.316406 34.488281 30.277344 34.347656 30.335938 L 29.554688 32.007812 C 28.808594 32.269531 28.046875 32.320312 27.277344 32.15625 L 25.484375 31.804688 L 25.484375 31.792969 C 25.414062 31.785156 25.351562 31.773438 25.304688 31.765625 L 7.574219 28.304688 C 7.574219 28.304688 10.015625 32.796875 11.707031 32.898438 C 15.203125 33.109375 24.464844 33.707031 24.464844 33.707031 L 10.332031 33.613281 C 10.332031 33.613281 12.824219 36.71875 14.15625 36.714844 C 15.710938 36.714844 18.695312 36.519531 21.003906 36.335938 L 15.070312 37.347656 C 15.070312 37.347656 17.457031 39.605469 18.570312 39.488281 C 20.097656 39.316406 27.6875 38.902344 27.703125 38.902344 C 27.996094 38.902344 28.09375 38.949219 28.183594 39.066406 C 28.671875 39.746094 29.234375 40.359375 29.867188 40.902344 C 30.503906 41.449219 31.191406 41.910156 31.9375 42.292969 C 32.683594 42.671875 33.460938 42.960938 34.273438 43.160156 C 35.085938 43.355469 35.914062 43.453125 36.75 43.453125 L 36.777344 43.453125 C 36.910156 43.457031 37.03125 43.417969 37.140625 43.339844 C 37.25 43.261719 37.320312 43.160156 37.359375 43.03125 C 37.457031 42.753906 37.390625 42.527344 37.167969 42.34375 L 36.296875 41.6875 C 36.203125 41.617188 36.140625 41.523438 36.117188 41.410156 C 36.09375 41.292969 36.113281 41.183594 36.175781 41.082031 C 36.246094 40.980469 36.34375 40.917969 36.464844 40.898438 C 36.589844 40.875 36.703125 40.902344 36.800781 40.976562 L 37.664062 41.625 L 37.703125 41.65625 L 39.167969 42.757812 C 39.324219 42.875 39.5 42.9375 39.699219 42.9375 C 39.894531 42.9375 40.074219 42.875 40.230469 42.757812 C 40.402344 42.636719 40.511719 42.472656 40.5625 42.269531 C 40.609375 42.097656 40.605469 41.925781 40.546875 41.753906 C 40.488281 41.585938 40.386719 41.445312 40.242188 41.335938 L 38.476562 40.015625 C 38.28125 39.871094 38.234375 39.691406 38.335938 39.46875 C 38.394531 39.34375 38.492188 39.265625 38.625 39.234375 C 38.757812 39.203125 38.878906 39.226562 38.988281 39.308594 L 40.761719 40.636719 L 41.742188 41.375 C 41.898438 41.496094 42.070312 41.5625 42.265625 41.570312 C 42.457031 41.578125 42.636719 41.53125 42.800781 41.425781 C 42.921875 41.347656 43.015625 41.246094 43.085938 41.121094 C 43.15625 40.996094 43.191406 40.859375 43.195312 40.71875 C 43.203125 40.574219 43.171875 40.4375 43.113281 40.308594 C 43.050781 40.179688 42.964844 40.070312 42.851562 39.984375 L 40.628906 38.308594 C 40.429688 38.167969 40.382812 37.984375 40.480469 37.761719 C 40.542969 37.640625 40.636719 37.5625 40.773438 37.527344 C 40.90625 37.496094 41.027344 37.519531 41.136719 37.605469 L 43.367188 39.28125 L 43.375 39.28125 L 43.699219 39.523438 C 43.894531 39.667969 44.113281 39.730469 44.355469 39.707031 C 44.59375 39.679688 44.796875 39.578125 44.957031 39.394531 C 45.109375 39.210938 45.175781 39 45.160156 38.761719 Z M 45.160156 38.761719 " fill-opacity="1" fill-rule="nonzero"/></g></svg>