<svg xmlns="http://www.w3.org/2000/svg" xmlns:xlink="http://www.w3.org/1999/xlink" width="200" zoomAndPan="magnify" viewBox="0 0 150 52.499999" height="70" preserveAspectRatio="xMidYMid meet" version="1.0"><defs><g/><clipPath id="11c0b94cf7"><path d="M 15 28 L 38 28 L 38 38.800781 L 15 38.800781 Z M 15 28 " clip-rule="nonzero"/></clipPath><clipPath id="eeff537520"><path d="M 21 18 L 51.96875 18 L 51.96875 29 L 21 29 Z M 21 18 " clip-rule="nonzero"/></clipPath><clipPath id="f221f0fe65"><path d="M 0.707031 18 L 34 18 L 34 32 L 0.707031 32 Z M 0.707031 18 " clip-rule="nonzero"/></clipPath></defs><g fill="#da880a" fill-opacity="1"><g transform="translate(55.738232, 23.860325)"><g><path d="M 6.6875 -0.1875 L 6.984375 -0.015625 L 7.3125 0.015625 L 7.5625 -0.0625 L 7.671875 -0.28125 L 7.6875 -4.421875 L 7.65625 -4.609375 L 7.65625 -5.734375 L 7.6875 -6 L 7.65625 -7.578125 L 7.546875 -7.8125 L 7.3125 -7.9375 L 5.90625 -7.921875 L 5.703125 -7.796875 L 5.578125 -7.5625 L 5.5625 -7.3125 L 5.59375 -7.140625 L 5.5625 -6.65625 L 5.578125 -6.40625 L 5.5625 -4.390625 L 5.5 -4.1875 L 5.328125 -4.265625 L 4.515625 -5.078125 L 4.203125 -5.328125 L 1.96875 -7.578125 L 1.796875 -7.71875 L 1.546875 -7.84375 L 1.203125 -7.9375 L 0.9375 -7.8125 L 0.84375 -7.59375 L 0.84375 -4.171875 L 0.828125 -3.96875 L 0.84375 -3.515625 L 0.8125 -3.3125 L 0.84375 -1.46875 L 0.8125 -1.25 L 0.84375 -0.296875 L 0.9375 -0.078125 L 1.171875 0 L 1.640625 0.015625 L 1.890625 0 L 2.328125 0.03125 L 2.578125 0.015625 L 2.796875 -0.09375 L 2.90625 -0.4375 L 2.921875 -3.3125 L 2.953125 -3.53125 L 3.03125 -3.734375 L 3.171875 -3.671875 L 3.3125 -3.484375 L 4.125 -2.703125 L 4.265625 -2.53125 L 4.46875 -2.40625 L 6.21875 -0.671875 L 6.515625 -0.34375 Z M 6.6875 -0.1875 "/></g></g></g><g fill="#da880a" fill-opacity="1"><g transform="translate(64.276054, 23.860325)"><g><path d="M 3.890625 0.140625 L 4.234375 0.109375 L 4.453125 0.125 L 5.328125 -0.109375 L 5.75 -0.3125 L 6.125 -0.5625 L 6.4375 -0.890625 L 6.6875 -1.28125 L 6.765625 -1.5 L 6.875 -1.703125 L 6.984375 -2.171875 L 7.03125 -2.71875 L 7.03125 -5.78125 L 7.015625 -6 L 7.03125 -6.234375 L 7.015625 -6.421875 L 7.015625 -7.359375 L 7.046875 -7.59375 L 6.90625 -7.828125 L 6.65625 -7.90625 L 5.9375 -7.890625 L 5.453125 -7.921875 L 5.21875 -7.8125 L 5.09375 -7.5625 L 5.125 -3.09375 L 5.046875 -2.390625 L 4.96875 -2.21875 L 4.84375 -2 L 4.65625 -1.859375 L 4.265625 -1.703125 L 3.578125 -1.703125 L 3.3125 -1.765625 L 3.125 -1.875 L 2.953125 -2.015625 L 2.8125 -2.203125 L 2.734375 -2.40625 L 2.671875 -3.0625 L 2.703125 -6.71875 L 2.6875 -6.890625 L 2.703125 -7.25 L 2.6875 -7.578125 L 2.546875 -7.828125 L 2.3125 -7.9375 L 2.09375 -7.9375 L 1.875 -7.890625 L 1.375 -7.9375 L 1.140625 -7.90625 L 0.90625 -7.8125 L 0.765625 -7.59375 L 0.78125 -7.375 L 0.78125 -7.109375 L 0.765625 -6.921875 L 0.796875 -5.328125 L 0.765625 -5.109375 L 0.78125 -4.890625 L 0.75 -3.0625 L 0.8125 -2.15625 L 0.921875 -1.703125 L 1.109375 -1.3125 L 1.375 -0.90625 L 1.5 -0.75 L 1.671875 -0.59375 L 2.046875 -0.359375 L 2.265625 -0.265625 L 2.4375 -0.15625 L 2.859375 0.03125 L 3.3125 0.125 L 3.53125 0.125 Z M 3.890625 0.140625 "/></g></g></g><g fill="#da880a" fill-opacity="1"><g transform="translate(72.089181, 23.860325)"><g><path d="M 2.875 0.125 L 3.234375 0.125 L 3.546875 0.09375 L 3.796875 0.09375 L 4.25 0.015625 L 4.453125 -0.109375 L 5.09375 -0.390625 L 5.25 -0.53125 L 5.4375 -0.671875 L 5.890625 -1.171875 L 6.078125 -1.546875 L 6.234375 -2.046875 L 6.28125 -2.59375 L 6.265625 -5.59375 L 6.296875 -5.796875 L 6.28125 -7.59375 L 6.15625 -7.828125 L 5.8125 -7.921875 L 5.25 -7.9375 L 5 -7.90625 L 4.09375 -7.9375 L 3.859375 -7.90625 L 3.515625 -7.96875 L 3.1875 -7.90625 L 2.953125 -7.90625 L 2.703125 -7.8125 L 2.578125 -7.609375 L 2.609375 -7.375 L 2.59375 -7.15625 L 2.609375 -6.890625 L 2.578125 -6.703125 L 2.609375 -6.484375 L 2.6875 -6.234375 L 2.953125 -6.125 L 3.15625 -6.09375 L 3.484375 -6.09375 L 3.84375 -6.125 L 4.078125 -6 L 4.203125 -5.78125 L 4.15625 -2.296875 L 4.0625 -2.078125 L 3.9375 -1.921875 L 3.546875 -1.71875 L 3.21875 -1.6875 L 2.90625 -1.75 L 2.671875 -1.828125 L 2.46875 -1.953125 L 2.3125 -2.09375 L 2.234375 -2.28125 L 2.15625 -2.640625 L 2.15625 -3.15625 L 2.171875 -3.359375 L 2.046875 -3.5625 L 1.796875 -3.640625 L 1.09375 -3.671875 L 0.859375 -3.640625 L 0.609375 -3.640625 L 0.359375 -3.546875 L 0.25 -3.328125 L 0.234375 -2.9375 L 0.265625 -2.609375 L 0.265625 -2.265625 L 0.28125 -2.046875 L 0.34375 -1.8125 L 0.515625 -1.40625 L 0.875 -0.8125 L 1.046875 -0.640625 L 1.578125 -0.25 L 2 -0.09375 L 2.203125 -0.046875 L 2.453125 0.0625 L 2.65625 0.0625 Z M 2.875 0.125 "/></g></g></g><g fill="#da880a" fill-opacity="1"><g transform="translate(79.154966, 23.860325)"><g><path d="M 3.890625 0.140625 L 4.234375 0.109375 L 4.453125 0.125 L 5.328125 -0.109375 L 5.75 -0.3125 L 6.125 -0.5625 L 6.4375 -0.890625 L 6.6875 -1.28125 L 6.765625 -1.5 L 6.875 -1.703125 L 6.984375 -2.171875 L 7.03125 -2.71875 L 7.03125 -5.78125 L 7.015625 -6 L 7.03125 -6.234375 L 7.015625 -6.421875 L 7.015625 -7.359375 L 7.046875 -7.59375 L 6.90625 -7.828125 L 6.65625 -7.90625 L 5.9375 -7.890625 L 5.453125 -7.921875 L 5.21875 -7.8125 L 5.09375 -7.5625 L 5.125 -3.09375 L 5.046875 -2.390625 L 4.96875 -2.21875 L 4.84375 -2 L 4.65625 -1.859375 L 4.265625 -1.703125 L 3.578125 -1.703125 L 3.3125 -1.765625 L 3.125 -1.875 L 2.953125 -2.015625 L 2.8125 -2.203125 L 2.734375 -2.40625 L 2.671875 -3.0625 L 2.703125 -6.71875 L 2.6875 -6.890625 L 2.703125 -7.25 L 2.6875 -7.578125 L 2.546875 -7.828125 L 2.3125 -7.9375 L 2.09375 -7.9375 L 1.875 -7.890625 L 1.375 -7.9375 L 1.140625 -7.90625 L 0.90625 -7.8125 L 0.765625 -7.59375 L 0.78125 -7.375 L 0.78125 -7.109375 L 0.765625 -6.921875 L 0.796875 -5.328125 L 0.765625 -5.109375 L 0.78125 -4.890625 L 0.75 -3.0625 L 0.8125 -2.15625 L 0.921875 -1.703125 L 1.109375 -1.3125 L 1.375 -0.90625 L 1.5 -0.75 L 1.671875 -0.59375 L 2.046875 -0.359375 L 2.265625 -0.265625 L 2.4375 -0.15625 L 2.859375 0.03125 L 3.3125 0.125 L 3.53125 0.125 Z M 3.890625 0.140625 "/></g></g></g><g fill="#da880a" fill-opacity="1"><g transform="translate(86.968093, 23.860325)"><g><path d="M 1.171875 0.03125 L 1.40625 0 L 1.84375 0.015625 L 2.09375 -0.015625 L 2.453125 0.015625 L 2.78125 -0.125 L 2.90625 -0.328125 L 2.875 -1.515625 L 2.90625 -1.875 L 2.90625 -2.109375 L 2.921875 -2.515625 L 2.90625 -2.765625 L 2.90625 -3.203125 L 3 -3.3125 L 3.109375 -3.265625 L 3.296875 -3.109375 L 3.4375 -2.953125 L 3.890625 -2.484375 L 4.046875 -2.296875 L 4.34375 -2 L 4.59375 -1.828125 L 4.84375 -1.828125 L 5.0625 -2 L 5.359375 -2.296875 L 5.671875 -2.671875 L 5.828125 -2.78125 L 6.296875 -3.265625 L 6.453125 -3.328125 L 6.53125 -3.15625 L 6.515625 -2.53125 L 6.546875 -2.078125 L 6.53125 -1.640625 L 6.546875 -1.21875 L 6.53125 -1.015625 L 6.546875 -0.515625 L 6.546875 -0.34375 L 6.640625 -0.078125 L 6.875 -0.015625 L 8.25 0.03125 L 8.484375 -0.09375 L 8.625 -0.421875 L 8.59375 -1.015625 L 8.609375 -1.234375 L 8.59375 -4.640625 L 8.609375 -4.875 L 8.59375 -6 L 8.609375 -6.21875 L 8.59375 -6.703125 L 8.59375 -7.359375 L 8.609375 -7.578125 L 8.46875 -7.8125 L 8.234375 -7.9375 L 7.90625 -7.84375 L 7.671875 -7.6875 L 7.1875 -7.1875 L 7.046875 -7.015625 L 6.90625 -6.890625 L 6.75 -6.6875 L 5.75 -5.671875 L 5.609375 -5.46875 L 4.921875 -4.765625 L 4.71875 -4.640625 L 4.46875 -4.71875 L 4.34375 -4.921875 L 4.1875 -5.078125 L 3.96875 -5.328125 L 3.734375 -5.5625 L 2.703125 -6.703125 L 2.53125 -6.84375 L 2.25 -7.1875 L 2.0625 -7.359375 L 1.765625 -7.65625 L 1.5 -7.84375 L 1.1875 -7.9375 L 0.9375 -7.828125 L 0.8125 -7.59375 L 0.84375 -6.90625 L 0.8125 -6.453125 L 0.84375 -6.25 L 0.828125 -4.4375 L 0.84375 -4.21875 L 0.8125 -3.0625 L 0.84375 -2.859375 L 0.828125 -0.34375 L 0.953125 -0.109375 Z M 1.171875 0.03125 "/></g></g></g><g fill="#da880a" fill-opacity="1"><g transform="translate(96.434428, 23.860325)"><g/></g></g><g fill="#da880a" fill-opacity="1"><g transform="translate(99.503059, 23.860325)"><g><path d="M 6.6875 0.015625 L 7.109375 -0.015625 L 7.328125 0.015625 L 7.6875 0 L 8 -0.0625 L 8.03125 -0.328125 L 7.953125 -0.59375 L 7.78125 -1.015625 L 7.484375 -1.59375 L 7.3125 -2.015625 L 7.09375 -2.421875 L 6.65625 -3.453125 L 6.546875 -3.625 L 6.4375 -3.84375 L 6.359375 -4.09375 L 6.265625 -4.265625 L 6.203125 -4.4375 L 5.953125 -4.859375 L 5.875 -5.09375 L 5.125 -6.671875 L 5.0625 -6.90625 L 4.9375 -7.109375 L 4.875 -7.3125 L 4.65625 -7.703125 L 4.46875 -7.90625 L 4.09375 -8.015625 L 3.734375 -7.890625 L 3.515625 -7.703125 L 3.421875 -7.515625 L 3.34375 -7.28125 L 3.234375 -7.125 L 2.78125 -6.078125 L 2.65625 -5.90625 L 2.609375 -5.6875 L 2.484375 -5.46875 L 2.40625 -5.265625 L 1.25 -2.84375 L 1.1875 -2.59375 L 1.078125 -2.421875 L 1 -2.203125 L 0.796875 -1.828125 L 0.625 -1.375 L 0.5 -1.21875 L 0.4375 -1.015625 L 0.21875 -0.5625 L 0.140625 -0.34375 L 0.203125 -0.0625 L 0.4375 0.015625 L 0.875 -0.015625 L 1.09375 0.015625 L 1.734375 -0.015625 L 2 -0.09375 L 2.203125 -0.296875 L 2.40625 -0.671875 L 2.625 -0.890625 L 2.859375 -1.015625 L 3.078125 -0.96875 L 3.5625 -1.015625 L 3.765625 -0.984375 L 4.875 -1 L 5.078125 -0.96875 L 5.328125 -1.015625 L 5.578125 -0.890625 L 5.78125 -0.703125 L 5.890625 -0.484375 L 5.953125 -0.28125 L 6.1875 -0.109375 L 6.453125 0 Z M 4.109375 -2.796875 L 3.890625 -2.84375 L 3.625 -2.828125 L 3.4375 -2.90625 L 3.4375 -3.109375 L 3.96875 -4.34375 L 4.09375 -4.4375 L 4.25 -4.34375 L 4.78125 -3.109375 L 4.734375 -2.90625 L 4.5625 -2.8125 Z M 4.109375 -2.796875 "/></g></g></g><g fill="#da880a" fill-opacity="1"><g transform="translate(107.723824, 23.860325)"><g><path d="M 0.859375 -0.40625 L 0.9375 -0.109375 L 1.15625 0 L 1.375 0.015625 L 1.859375 -0.015625 L 2.296875 0.015625 L 2.734375 -0.015625 L 2.953125 0.015625 L 3.1875 0 L 5.4375 0.015625 L 5.65625 -0.109375 L 5.78125 -0.453125 L 5.765625 -1.375 L 5.671875 -1.703125 L 5.453125 -1.84375 L 5.21875 -1.828125 L 5 -1.78125 L 4.765625 -1.8125 L 4.3125 -1.796875 L 4.078125 -1.84375 L 3.875 -1.8125 L 3.4375 -1.828125 L 3.1875 -1.8125 L 2.96875 -1.90625 L 2.875 -2.125 L 2.890625 -5.96875 L 2.859375 -6.234375 L 2.890625 -6.6875 L 2.859375 -7.34375 L 2.859375 -7.5625 L 2.75 -7.8125 L 2.53125 -7.9375 L 2.078125 -7.9375 L 1.859375 -7.890625 L 1.40625 -7.9375 L 1.1875 -7.90625 L 0.953125 -7.8125 L 0.84375 -7.5625 L 0.84375 -5.984375 L 0.828125 -5.765625 L 0.84375 -5.546875 L 0.8125 -5.125 L 0.828125 -4.875 L 0.84375 -4.65625 Z M 0.859375 -0.40625 "/></g></g></g><g fill="#da880a" fill-opacity="1"><g transform="translate(113.815795, 23.860325)"><g/></g></g><g fill="#da880a" fill-opacity="1"><g transform="translate(116.884426, 23.860325)"><g><path d="M 1.171875 0.03125 L 1.40625 0 L 1.84375 0.015625 L 2.09375 -0.015625 L 2.453125 0.015625 L 2.78125 -0.125 L 2.90625 -0.328125 L 2.875 -1.515625 L 2.90625 -1.875 L 2.90625 -2.109375 L 2.921875 -2.515625 L 2.90625 -2.765625 L 2.90625 -3.203125 L 3 -3.3125 L 3.109375 -3.265625 L 3.296875 -3.109375 L 3.4375 -2.953125 L 3.890625 -2.484375 L 4.046875 -2.296875 L 4.34375 -2 L 4.59375 -1.828125 L 4.84375 -1.828125 L 5.0625 -2 L 5.359375 -2.296875 L 5.671875 -2.671875 L 5.828125 -2.78125 L 6.296875 -3.265625 L 6.453125 -3.328125 L 6.53125 -3.15625 L 6.515625 -2.53125 L 6.546875 -2.078125 L 6.53125 -1.640625 L 6.546875 -1.21875 L 6.53125 -1.015625 L 6.546875 -0.515625 L 6.546875 -0.34375 L 6.640625 -0.078125 L 6.875 -0.015625 L 8.25 0.03125 L 8.484375 -0.09375 L 8.625 -0.421875 L 8.59375 -1.015625 L 8.609375 -1.234375 L 8.59375 -4.640625 L 8.609375 -4.875 L 8.59375 -6 L 8.609375 -6.21875 L 8.59375 -6.703125 L 8.59375 -7.359375 L 8.609375 -7.578125 L 8.46875 -7.8125 L 8.234375 -7.9375 L 7.90625 -7.84375 L 7.671875 -7.6875 L 7.1875 -7.1875 L 7.046875 -7.015625 L 6.90625 -6.890625 L 6.75 -6.6875 L 5.75 -5.671875 L 5.609375 -5.46875 L 4.921875 -4.765625 L 4.71875 -4.640625 L 4.46875 -4.71875 L 4.34375 -4.921875 L 4.1875 -5.078125 L 3.96875 -5.328125 L 3.734375 -5.5625 L 2.703125 -6.703125 L 2.53125 -6.84375 L 2.25 -7.1875 L 2.0625 -7.359375 L 1.765625 -7.65625 L 1.5 -7.84375 L 1.1875 -7.9375 L 0.9375 -7.828125 L 0.8125 -7.59375 L 0.84375 -6.90625 L 0.8125 -6.453125 L 0.84375 -6.25 L 0.828125 -4.4375 L 0.84375 -4.21875 L 0.8125 -3.0625 L 0.84375 -2.859375 L 0.828125 -0.34375 L 0.953125 -0.109375 Z M 1.171875 0.03125 "/></g></g></g><g fill="#da880a" fill-opacity="1"><g transform="translate(126.35076, 23.860325)"><g><path d="M 3.796875 0.046875 L 4.25 0.015625 L 4.453125 -0.09375 L 4.5625 -0.3125 L 4.5625 -1.421875 L 4.421875 -1.640625 L 4.1875 -1.765625 L 3.9375 -1.765625 L 3.671875 -1.859375 L 3.53125 -2.125 L 3.5625 -2.328125 L 3.5625 -3.578125 L 3.578125 -3.828125 L 3.53125 -4.640625 L 3.578125 -5.78125 L 3.65625 -6.046875 L 3.90625 -6.15625 L 4.140625 -6.1875 L 4.375 -6.28125 L 4.484375 -6.453125 L 4.5 -7.578125 L 4.359375 -7.796875 L 4.15625 -7.921875 L 2.78125 -7.921875 L 2.578125 -7.9375 L 2.359375 -7.890625 L 1.421875 -7.890625 L 1.21875 -7.9375 L 0.953125 -7.9375 L 0.71875 -7.8125 L 0.609375 -7.546875 L 0.640625 -6.703125 L 0.625 -6.484375 L 0.75 -6.265625 L 1 -6.140625 L 1.21875 -6.140625 L 1.4375 -6 L 1.546875 -5.703125 L 1.578125 -2.21875 L 1.453125 -1.875 L 0.703125 -1.65625 L 0.578125 -1.453125 L 0.546875 -0.40625 L 0.65625 -0.109375 L 0.890625 0 L 1.09375 0 L 1.3125 -0.015625 L 1.640625 0.015625 L 2 0.015625 L 2.21875 -0.015625 L 2.671875 0.03125 L 3.015625 -0.015625 L 3.5625 -0.015625 Z M 3.796875 0.046875 "/></g></g></g><g fill="#da880a" fill-opacity="1"><g transform="translate(131.491573, 23.860325)"><g><path d="M 6.6875 0.015625 L 7.109375 -0.015625 L 7.328125 0.015625 L 7.6875 0 L 8 -0.0625 L 8.03125 -0.328125 L 7.953125 -0.59375 L 7.78125 -1.015625 L 7.484375 -1.59375 L 7.3125 -2.015625 L 7.09375 -2.421875 L 6.65625 -3.453125 L 6.546875 -3.625 L 6.4375 -3.84375 L 6.359375 -4.09375 L 6.265625 -4.265625 L 6.203125 -4.4375 L 5.953125 -4.859375 L 5.875 -5.09375 L 5.125 -6.671875 L 5.0625 -6.90625 L 4.9375 -7.109375 L 4.875 -7.3125 L 4.65625 -7.703125 L 4.46875 -7.90625 L 4.09375 -8.015625 L 3.734375 -7.890625 L 3.515625 -7.703125 L 3.421875 -7.515625 L 3.34375 -7.28125 L 3.234375 -7.125 L 2.78125 -6.078125 L 2.65625 -5.90625 L 2.609375 -5.6875 L 2.484375 -5.46875 L 2.40625 -5.265625 L 1.25 -2.84375 L 1.1875 -2.59375 L 1.078125 -2.421875 L 1 -2.203125 L 0.796875 -1.828125 L 0.625 -1.375 L 0.5 -1.21875 L 0.4375 -1.015625 L 0.21875 -0.5625 L 0.140625 -0.34375 L 0.203125 -0.0625 L 0.4375 0.015625 L 0.875 -0.015625 L 1.09375 0.015625 L 1.734375 -0.015625 L 2 -0.09375 L 2.203125 -0.296875 L 2.40625 -0.671875 L 2.625 -0.890625 L 2.859375 -1.015625 L 3.078125 -0.96875 L 3.5625 -1.015625 L 3.765625 -0.984375 L 4.875 -1 L 5.078125 -0.96875 L 5.328125 -1.015625 L 5.578125 -0.890625 L 5.78125 -0.703125 L 5.890625 -0.484375 L 5.953125 -0.28125 L 6.1875 -0.109375 L 6.453125 0 Z M 4.109375 -2.796875 L 3.890625 -2.84375 L 3.625 -2.828125 L 3.4375 -2.90625 L 3.4375 -3.109375 L 3.96875 -4.34375 L 4.09375 -4.4375 L 4.25 -4.34375 L 4.78125 -3.109375 L 4.734375 -2.90625 L 4.5625 -2.8125 Z M 4.109375 -2.796875 "/></g></g></g><g fill="#da880a" fill-opacity="1"><g transform="translate(139.712338, 23.860325)"><g><path d="M 3.484375 0.03125 L 3.828125 0.03125 L 4.1875 -0.015625 L 4.40625 -0.015625 L 4.734375 -0.109375 L 5.203125 -0.1875 L 5.734375 -0.421875 L 6.484375 -0.921875 L 7.046875 -1.640625 L 7.15625 -1.875 L 7.296875 -2.046875 L 7.484375 -2.5 L 7.53125 -2.703125 L 7.578125 -2.953125 L 7.640625 -3.140625 L 7.6875 -3.359375 L 7.6875 -3.609375 L 7.71875 -3.96875 L 7.703125 -4.296875 L 7.546875 -5.1875 L 7.390625 -5.625 L 7.3125 -5.828125 L 6.921875 -6.4375 L 6.328125 -7.109375 L 5.75 -7.484375 L 5.53125 -7.609375 L 5.296875 -7.65625 L 5.109375 -7.75 L 4.875 -7.8125 L 4.203125 -7.90625 L 1.625 -7.9375 L 1.421875 -7.890625 L 1.1875 -7.90625 L 0.9375 -7.8125 L 0.84375 -7.5625 L 0.828125 -1.234375 L 0.84375 -1.015625 L 0.84375 -0.4375 L 0.96875 -0.09375 L 1.1875 0.015625 L 1.421875 0 L 2.796875 0.015625 L 3.03125 -0.015625 Z M 3.453125 -1.828125 L 3.234375 -1.84375 L 2.984375 -1.96875 L 2.890625 -2.1875 L 2.875 -2.375 L 2.890625 -2.84375 L 2.84375 -3.40625 L 2.890625 -3.96875 L 2.859375 -5.53125 L 2.890625 -5.71875 L 3 -5.984375 L 3.359375 -6.0625 L 3.84375 -6.078125 L 4.171875 -6.03125 L 4.609375 -5.90625 L 4.8125 -5.8125 L 4.984375 -5.6875 L 5.15625 -5.53125 L 5.328125 -5.328125 L 5.546875 -4.921875 L 5.71875 -3.9375 L 5.609375 -3.140625 L 5.421875 -2.71875 L 5 -2.25 L 4.609375 -2 L 4.28125 -1.890625 L 3.796875 -1.828125 Z M 3.453125 -1.828125 "/></g></g></g><g fill="#000000" fill-opacity="1"><g transform="translate(56.624455, 31.760449)"><g><path d="M 1.984375 0.046875 L 2.265625 0.0625 L 2.671875 0.046875 L 3 -0.03125 L 3.109375 -0.078125 L 3.234375 -0.125 L 3.328125 -0.171875 L 3.609375 -0.375 L 3.765625 -0.53125 L 3.890625 -0.703125 L 4.015625 -0.90625 L 4.15625 -1.34375 L 4.125 -1.4375 L 4.015625 -1.515625 L 3.703125 -1.5 L 3.578125 -1.515625 L 3.46875 -1.5 L 3.359375 -1.515625 L 3.21875 -1.4375 L 3.125 -1.359375 L 3.078125 -1.25 L 2.9375 -1.09375 L 2.859375 -1.015625 L 2.765625 -0.984375 L 2.5625 -0.875 L 2.265625 -0.859375 L 2.09375 -0.875 L 1.890625 -0.953125 L 1.6875 -1.046875 L 1.53125 -1.203125 L 1.40625 -1.390625 L 1.359375 -1.515625 L 1.328125 -1.59375 L 1.296875 -1.6875 L 1.28125 -1.8125 L 1.28125 -2.171875 L 1.3125 -2.390625 L 1.40625 -2.59375 L 1.453125 -2.703125 L 1.59375 -2.875 L 1.734375 -2.984375 L 1.890625 -3.0625 L 2.265625 -3.109375 L 2.515625 -3.109375 L 2.6875 -3.046875 L 2.796875 -3.015625 L 2.875 -2.953125 L 3.046875 -2.78125 L 3.109375 -2.703125 L 3.203125 -2.59375 L 3.34375 -2.53125 L 3.671875 -2.53125 L 3.84375 -2.515625 L 4.015625 -2.53125 L 4.109375 -2.578125 L 4.140625 -2.703125 L 4.109375 -2.828125 L 4.078125 -2.921875 L 4.03125 -3.046875 L 3.96875 -3.140625 L 3.921875 -3.234375 L 3.84375 -3.328125 L 3.78125 -3.4375 L 3.625 -3.59375 L 3.234375 -3.84375 L 2.6875 -4.03125 L 2.578125 -4.03125 L 2.46875 -4.046875 L 2.109375 -4.0625 L 1.5625 -3.953125 L 1.140625 -3.75 L 0.96875 -3.625 L 0.71875 -3.40625 L 0.578125 -3.203125 L 0.46875 -3.046875 L 0.3125 -2.71875 L 0.265625 -2.484375 L 0.203125 -2 L 0.234375 -1.578125 L 0.3125 -1.25 L 0.5625 -0.765625 L 0.796875 -0.5 L 1.0625 -0.28125 L 1.296875 -0.15625 L 1.5625 -0.046875 L 1.65625 -0.015625 L 1.78125 0.015625 L 1.875 0.046875 Z M 1.984375 0.046875 "/></g></g></g><g fill="#000000" fill-opacity="1"><g transform="translate(61.671317, 31.760449)"><g><path d="M 2.28125 0.078125 L 2.796875 0.015625 L 3.015625 -0.046875 L 3.515625 -0.28125 L 3.921875 -0.65625 L 4 -0.765625 L 4.21875 -1.15625 L 4.25 -1.265625 L 4.265625 -1.375 L 4.3125 -1.46875 L 4.328125 -1.59375 L 4.359375 -1.984375 L 4.328125 -2.390625 L 4.28125 -2.59375 L 4.234375 -2.71875 L 4.203125 -2.84375 L 4.109375 -3.03125 L 4.0625 -3.140625 L 4 -3.234375 L 3.921875 -3.296875 L 3.84375 -3.40625 L 3.609375 -3.625 L 3.3125 -3.8125 L 2.5625 -4.046875 L 2.296875 -4.046875 L 1.90625 -4.03125 L 1.78125 -4 L 1.671875 -3.96875 L 1.5625 -3.921875 L 1.359375 -3.859375 L 1.0625 -3.6875 L 0.984375 -3.609375 L 0.796875 -3.484375 L 0.640625 -3.3125 L 0.453125 -3.03125 L 0.40625 -2.9375 L 0.296875 -2.625 L 0.25 -2.375 L 0.21875 -1.71875 L 0.28125 -1.359375 L 0.375 -1.15625 L 0.40625 -1.046875 L 0.46875 -0.9375 L 0.734375 -0.578125 L 0.96875 -0.34375 L 1.359375 -0.125 L 1.453125 -0.078125 L 1.9375 0.0625 Z M 2.125 -0.921875 L 2.015625 -0.96875 L 1.90625 -0.984375 L 1.71875 -1.078125 L 1.546875 -1.234375 L 1.484375 -1.3125 L 1.40625 -1.390625 L 1.296875 -1.71875 L 1.265625 -2 L 1.28125 -2.171875 L 1.3125 -2.390625 L 1.359375 -2.484375 L 1.421875 -2.5625 L 1.46875 -2.65625 L 1.546875 -2.75 L 1.625 -2.828125 L 1.796875 -2.9375 L 1.90625 -3 L 2.015625 -3.015625 L 2.28125 -3.046875 L 2.5625 -3.03125 L 2.859375 -2.890625 L 3.03125 -2.765625 L 3.171875 -2.578125 L 3.203125 -2.46875 L 3.25 -2.359375 L 3.28125 -2.25 L 3.3125 -2 L 3.28125 -1.71875 L 3.21875 -1.484375 L 3.15625 -1.40625 L 3.109375 -1.3125 L 3.046875 -1.21875 L 2.859375 -1.078125 L 2.671875 -0.984375 L 2.5625 -0.96875 L 2.453125 -0.9375 Z M 2.125 -0.921875 "/></g></g></g><g fill="#000000" fill-opacity="1"><g transform="translate(66.94056, 31.760449)"><g><path d="M 3.359375 -0.09375 L 3.515625 0 L 3.671875 0.015625 L 3.796875 -0.03125 L 3.859375 -0.140625 L 3.875 -2.21875 L 3.859375 -2.328125 L 3.859375 -2.890625 L 3.875 -3.015625 L 3.859375 -3.8125 L 3.796875 -3.921875 L 3.6875 -4 L 2.984375 -3.984375 L 2.875 -3.921875 L 2.8125 -3.796875 L 2.796875 -3.6875 L 2.8125 -3.59375 L 2.796875 -3.359375 L 2.8125 -3.234375 L 2.796875 -2.203125 L 2.765625 -2.109375 L 2.6875 -2.15625 L 2.28125 -2.5625 L 2.109375 -2.6875 L 1 -3.8125 L 0.90625 -3.890625 L 0.78125 -3.953125 L 0.609375 -4 L 0.46875 -3.9375 L 0.421875 -3.828125 L 0.421875 -1.765625 L 0.40625 -1.671875 L 0.421875 -0.734375 L 0.40625 -0.625 L 0.421875 -0.140625 L 0.46875 -0.046875 L 0.59375 0 L 0.828125 0.015625 L 0.953125 0 L 1.171875 0.015625 L 1.296875 0.015625 L 1.40625 -0.046875 L 1.46875 -0.21875 L 1.46875 -1.671875 L 1.484375 -1.78125 L 1.515625 -1.875 L 1.59375 -1.84375 L 1.671875 -1.75 L 2.078125 -1.359375 L 2.15625 -1.28125 L 2.25 -1.21875 L 3.125 -0.34375 L 3.28125 -0.171875 Z M 3.359375 -0.09375 "/></g></g></g><g fill="#000000" fill-opacity="1"><g transform="translate(71.936105, 31.760449)"><g><path d="M 1.484375 0.015625 L 1.875 0 L 2.03125 -0.0625 L 2.09375 -0.21875 L 2.109375 -0.515625 L 2.09375 -0.734375 L 2.109375 -0.84375 L 2.09375 -1.078125 L 2.109375 -1.1875 L 2.09375 -1.3125 L 2.109375 -2.21875 L 2.09375 -2.34375 L 2.109375 -2.84375 L 2.15625 -3.015625 L 2.265625 -3.078125 L 2.484375 -3.09375 L 2.6875 -3.0625 L 2.8125 -3.078125 L 2.921875 -3.078125 L 3.015625 -3.140625 L 3.078125 -3.265625 L 3.078125 -3.796875 L 3.015625 -3.921875 L 2.921875 -4 L 2.453125 -4 L 2.328125 -3.984375 L 2.21875 -4 L 1.765625 -3.96875 L 1.640625 -4 L 1.546875 -4 L 1.421875 -3.984375 L 1.296875 -4 L 1.1875 -3.96875 L 0.859375 -4 L 0.671875 -3.96875 L 0.28125 -4 L 0.171875 -3.9375 L 0.109375 -3.8125 L 0.109375 -3.703125 L 0.09375 -3.40625 L 0.109375 -3.234375 L 0.15625 -3.125 L 0.265625 -3.078125 L 0.921875 -3.078125 L 1.03125 -3.015625 L 1.09375 -2.90625 L 1.078125 -2.71875 L 1.09375 -2.5625 L 1.078125 -2.4375 L 1.09375 -2.328125 L 1.078125 -2.15625 L 1.09375 -1.3125 L 1.078125 -1.203125 L 1.078125 -0.734375 L 1.09375 -0.609375 L 1.078125 -0.28125 L 1.078125 -0.171875 L 1.140625 -0.046875 L 1.3125 0 Z M 1.484375 0.015625 "/></g></g></g><g fill="#000000" fill-opacity="1"><g transform="translate(75.819741, 31.760449)"><g><path d="M 0.421875 -0.234375 L 0.484375 -0.0625 L 0.65625 0.015625 L 0.765625 0 L 0.953125 0.015625 L 1.03125 0 L 1.203125 0 L 1.390625 -0.046875 L 1.4375 -0.21875 L 1.4375 -0.40625 L 1.453125 -0.515625 L 1.4375 -0.640625 L 1.453125 -1 L 1.5 -1.109375 L 1.609375 -1.171875 L 1.9375 -1.125 L 2.046875 -1.03125 L 2.125 -0.921875 L 2.171875 -0.8125 L 2.28125 -0.640625 L 2.390625 -0.4375 L 2.453125 -0.359375 L 2.5 -0.234375 L 2.5625 -0.140625 L 2.6875 -0.046875 L 2.890625 0.015625 L 3.34375 0 L 3.4375 0.015625 L 3.640625 0.015625 L 3.734375 -0.046875 L 3.78125 -0.171875 L 3.71875 -0.296875 L 3.640625 -0.375 L 3.59375 -0.484375 L 3.40625 -0.765625 L 3.359375 -0.875 L 3.171875 -1.171875 L 3.109375 -1.25 L 3.09375 -1.390625 L 3.140625 -1.515625 L 3.234375 -1.609375 L 3.3125 -1.671875 L 3.53125 -2.0625 L 3.609375 -2.40625 L 3.59375 -2.765625 L 3.578125 -2.875 L 3.46875 -3.203125 L 3.421875 -3.296875 L 3.359375 -3.390625 L 3.046875 -3.734375 L 2.84375 -3.84375 L 2.625 -3.90625 L 2.296875 -3.984375 L 2.109375 -4 L 1.953125 -3.984375 L 1.609375 -3.984375 L 1.5 -4 L 1.375 -4 L 1.28125 -3.96875 L 1.15625 -3.96875 L 1.046875 -4 L 0.921875 -4 L 0.59375 -3.96875 L 0.484375 -3.921875 L 0.421875 -3.765625 L 0.421875 -2.453125 L 0.4375 -2.34375 L 0.421875 -2.109375 L 0.421875 -1.875 L 0.4375 -1.765625 L 0.421875 -1.65625 Z M 1.609375 -2.09375 L 1.5 -2.15625 L 1.453125 -2.234375 L 1.453125 -2.578125 L 1.4375 -2.6875 L 1.453125 -2.921875 L 1.5 -3.03125 L 1.625 -3.078125 L 1.734375 -3.0625 L 1.96875 -3.09375 L 2.125 -3.0625 L 2.265625 -3.046875 L 2.375 -3.015625 L 2.515625 -2.84375 L 2.5625 -2.75 L 2.578125 -2.59375 L 2.5625 -2.421875 L 2.515625 -2.3125 L 2.453125 -2.234375 L 2.390625 -2.171875 L 2.28125 -2.140625 L 2.109375 -2.09375 Z M 1.609375 -2.09375 "/></g></g></g><g fill="#000000" fill-opacity="1"><g transform="translate(80.473159, 31.760449)"><g><path d="M 3.359375 0.015625 L 3.578125 0 L 3.859375 0 L 4.03125 -0.03125 L 4.046875 -0.171875 L 4 -0.296875 L 3.921875 -0.5 L 3.765625 -0.796875 L 3.6875 -1.015625 L 3.5625 -1.21875 L 3.359375 -1.734375 L 3.296875 -1.828125 L 3.234375 -1.9375 L 3.203125 -2.0625 L 3.15625 -2.140625 L 3.125 -2.234375 L 3 -2.453125 L 2.953125 -2.5625 L 2.578125 -3.359375 L 2.546875 -3.46875 L 2.484375 -3.578125 L 2.453125 -3.671875 L 2.34375 -3.875 L 2.25 -3.984375 L 2.0625 -4.03125 L 1.875 -3.96875 L 1.78125 -3.875 L 1.71875 -3.78125 L 1.6875 -3.671875 L 1.625 -3.59375 L 1.40625 -3.0625 L 1.34375 -2.984375 L 1.3125 -2.859375 L 1.25 -2.75 L 1.21875 -2.65625 L 0.640625 -1.4375 L 0.59375 -1.3125 L 0.546875 -1.21875 L 0.5 -1.109375 L 0.40625 -0.921875 L 0.3125 -0.703125 L 0.25 -0.609375 L 0.21875 -0.515625 L 0.109375 -0.28125 L 0.078125 -0.171875 L 0.109375 -0.03125 L 0.21875 0 L 0.875 0 L 1 -0.046875 L 1.109375 -0.140625 L 1.21875 -0.34375 L 1.328125 -0.4375 L 1.4375 -0.5 L 1.546875 -0.484375 L 1.796875 -0.515625 L 1.890625 -0.5 L 2.453125 -0.5 L 2.5625 -0.484375 L 2.6875 -0.5 L 2.8125 -0.4375 L 2.921875 -0.359375 L 2.96875 -0.25 L 3 -0.140625 L 3.109375 -0.0625 L 3.25 0 Z M 2.0625 -1.40625 L 1.953125 -1.4375 L 1.828125 -1.421875 L 1.734375 -1.453125 L 1.734375 -1.5625 L 2 -2.1875 L 2.0625 -2.234375 L 2.140625 -2.1875 L 2.40625 -1.5625 L 2.390625 -1.453125 L 2.296875 -1.421875 Z M 2.0625 -1.40625 "/></g></g></g><g fill="#000000" fill-opacity="1"><g transform="translate(85.309047, 31.760449)"><g><path d="M 1.984375 0.046875 L 2.265625 0.0625 L 2.671875 0.046875 L 3 -0.03125 L 3.109375 -0.078125 L 3.234375 -0.125 L 3.328125 -0.171875 L 3.609375 -0.375 L 3.765625 -0.53125 L 3.890625 -0.703125 L 4.015625 -0.90625 L 4.15625 -1.34375 L 4.125 -1.4375 L 4.015625 -1.515625 L 3.703125 -1.5 L 3.578125 -1.515625 L 3.46875 -1.5 L 3.359375 -1.515625 L 3.21875 -1.4375 L 3.125 -1.359375 L 3.078125 -1.25 L 2.9375 -1.09375 L 2.859375 -1.015625 L 2.765625 -0.984375 L 2.5625 -0.875 L 2.265625 -0.859375 L 2.09375 -0.875 L 1.890625 -0.953125 L 1.6875 -1.046875 L 1.53125 -1.203125 L 1.40625 -1.390625 L 1.359375 -1.515625 L 1.328125 -1.59375 L 1.296875 -1.6875 L 1.28125 -1.8125 L 1.28125 -2.171875 L 1.3125 -2.390625 L 1.40625 -2.59375 L 1.453125 -2.703125 L 1.59375 -2.875 L 1.734375 -2.984375 L 1.890625 -3.0625 L 2.265625 -3.109375 L 2.515625 -3.109375 L 2.6875 -3.046875 L 2.796875 -3.015625 L 2.875 -2.953125 L 3.046875 -2.78125 L 3.109375 -2.703125 L 3.203125 -2.59375 L 3.34375 -2.53125 L 3.671875 -2.53125 L 3.84375 -2.515625 L 4.015625 -2.53125 L 4.109375 -2.578125 L 4.140625 -2.703125 L 4.109375 -2.828125 L 4.078125 -2.921875 L 4.03125 -3.046875 L 3.96875 -3.140625 L 3.921875 -3.234375 L 3.84375 -3.328125 L 3.78125 -3.4375 L 3.625 -3.59375 L 3.234375 -3.84375 L 2.6875 -4.03125 L 2.578125 -4.03125 L 2.46875 -4.046875 L 2.109375 -4.0625 L 1.5625 -3.953125 L 1.140625 -3.75 L 0.96875 -3.625 L 0.71875 -3.40625 L 0.578125 -3.203125 L 0.46875 -3.046875 L 0.3125 -2.71875 L 0.265625 -2.484375 L 0.203125 -2 L 0.234375 -1.578125 L 0.3125 -1.25 L 0.5625 -0.765625 L 0.796875 -0.5 L 1.0625 -0.28125 L 1.296875 -0.15625 L 1.5625 -0.046875 L 1.65625 -0.015625 L 1.78125 0.015625 L 1.875 0.046875 Z M 1.984375 0.046875 "/></g></g></g><g fill="#000000" fill-opacity="1"><g transform="translate(90.355909, 31.760449)"><g><path d="M 1.484375 0.015625 L 1.875 0 L 2.03125 -0.0625 L 2.09375 -0.21875 L 2.109375 -0.515625 L 2.09375 -0.734375 L 2.109375 -0.84375 L 2.09375 -1.078125 L 2.109375 -1.1875 L 2.09375 -1.3125 L 2.109375 -2.21875 L 2.09375 -2.34375 L 2.109375 -2.84375 L 2.15625 -3.015625 L 2.265625 -3.078125 L 2.484375 -3.09375 L 2.6875 -3.0625 L 2.8125 -3.078125 L 2.921875 -3.078125 L 3.015625 -3.140625 L 3.078125 -3.265625 L 3.078125 -3.796875 L 3.015625 -3.921875 L 2.921875 -4 L 2.453125 -4 L 2.328125 -3.984375 L 2.21875 -4 L 1.765625 -3.96875 L 1.640625 -4 L 1.546875 -4 L 1.421875 -3.984375 L 1.296875 -4 L 1.1875 -3.96875 L 0.859375 -4 L 0.671875 -3.96875 L 0.28125 -4 L 0.171875 -3.9375 L 0.109375 -3.8125 L 0.109375 -3.703125 L 0.09375 -3.40625 L 0.109375 -3.234375 L 0.15625 -3.125 L 0.265625 -3.078125 L 0.921875 -3.078125 L 1.03125 -3.015625 L 1.09375 -2.90625 L 1.078125 -2.71875 L 1.09375 -2.5625 L 1.078125 -2.4375 L 1.09375 -2.328125 L 1.078125 -2.15625 L 1.09375 -1.3125 L 1.078125 -1.203125 L 1.078125 -0.734375 L 1.09375 -0.609375 L 1.078125 -0.28125 L 1.078125 -0.171875 L 1.140625 -0.046875 L 1.3125 0 Z M 1.484375 0.015625 "/></g></g></g><g fill="#000000" fill-opacity="1"><g transform="translate(94.239545, 31.760449)"><g><path d="M 1.90625 0.015625 L 2.140625 0.015625 L 2.234375 -0.046875 L 2.296875 -0.15625 L 2.296875 -0.71875 L 2.234375 -0.828125 L 2.109375 -0.890625 L 1.984375 -0.890625 L 1.84375 -0.9375 L 1.78125 -1.0625 L 1.796875 -1.171875 L 1.796875 -1.921875 L 1.78125 -2.34375 L 1.796875 -2.921875 L 1.84375 -3.046875 L 1.96875 -3.09375 L 2.078125 -3.109375 L 2.203125 -3.15625 L 2.265625 -3.25 L 2.265625 -3.8125 L 2.203125 -3.921875 L 2.09375 -3.984375 L 1.40625 -3.984375 L 1.296875 -4 L 1.1875 -3.96875 L 0.71875 -3.96875 L 0.609375 -4 L 0.484375 -4 L 0.359375 -3.9375 L 0.3125 -3.796875 L 0.328125 -3.375 L 0.3125 -3.265625 L 0.375 -3.15625 L 0.5 -3.09375 L 0.609375 -3.09375 L 0.71875 -3.015625 L 0.78125 -2.875 L 0.796875 -1.125 L 0.734375 -0.953125 L 0.359375 -0.828125 L 0.296875 -0.734375 L 0.28125 -0.203125 L 0.328125 -0.046875 L 0.4375 0 L 0.546875 0 L 0.65625 -0.015625 L 0.828125 0.015625 L 1 0 L 1.125 0 L 1.34375 0.015625 L 1.515625 0 L 1.796875 0 Z M 1.90625 0.015625 "/></g></g></g><g fill="#000000" fill-opacity="1"><g transform="translate(97.524456, 31.760449)"><g><path d="M 3.359375 -0.09375 L 3.515625 0 L 3.671875 0.015625 L 3.796875 -0.03125 L 3.859375 -0.140625 L 3.875 -2.21875 L 3.859375 -2.328125 L 3.859375 -2.890625 L 3.875 -3.015625 L 3.859375 -3.8125 L 3.796875 -3.921875 L 3.6875 -4 L 2.984375 -3.984375 L 2.875 -3.921875 L 2.8125 -3.796875 L 2.796875 -3.6875 L 2.8125 -3.59375 L 2.796875 -3.359375 L 2.8125 -3.234375 L 2.796875 -2.203125 L 2.765625 -2.109375 L 2.6875 -2.15625 L 2.28125 -2.5625 L 2.109375 -2.6875 L 1 -3.8125 L 0.90625 -3.890625 L 0.78125 -3.953125 L 0.609375 -4 L 0.46875 -3.9375 L 0.421875 -3.828125 L 0.421875 -1.765625 L 0.40625 -1.671875 L 0.421875 -0.734375 L 0.40625 -0.625 L 0.421875 -0.140625 L 0.46875 -0.046875 L 0.59375 0 L 0.828125 0.015625 L 0.953125 0 L 1.171875 0.015625 L 1.296875 0.015625 L 1.40625 -0.046875 L 1.46875 -0.21875 L 1.46875 -1.671875 L 1.484375 -1.78125 L 1.515625 -1.875 L 1.59375 -1.84375 L 1.671875 -1.75 L 2.078125 -1.359375 L 2.15625 -1.28125 L 2.25 -1.21875 L 3.125 -0.34375 L 3.28125 -0.171875 Z M 3.359375 -0.09375 "/></g></g></g><g fill="#000000" fill-opacity="1"><g transform="translate(102.520002, 31.760449)"><g><path d="M 1.984375 0.0625 L 2.546875 0.0625 L 2.984375 -0.046875 L 3.375 -0.25 L 3.5625 -0.390625 L 3.640625 -0.484375 L 3.734375 -0.546875 L 3.796875 -0.625 L 3.859375 -0.71875 L 3.90625 -0.828125 L 3.96875 -0.90625 L 4.09375 -1.25 L 4.140625 -1.453125 L 4.140625 -1.5625 L 4.15625 -1.65625 L 4.15625 -1.78125 L 4.171875 -1.875 L 4.15625 -2.09375 L 4.109375 -2.203125 L 4 -2.25 L 3.875 -2.265625 L 3.765625 -2.28125 L 2.984375 -2.265625 L 2.640625 -2.28125 L 2.421875 -2.265625 L 2.3125 -2.203125 L 2.265625 -2.09375 L 2.265625 -1.5625 L 2.3125 -1.46875 L 2.421875 -1.40625 L 2.578125 -1.390625 L 2.875 -1.421875 L 3.0625 -1.359375 L 3.078125 -1.265625 L 3.015625 -1.15625 L 2.9375 -1.0625 L 2.859375 -1 L 2.65625 -0.921875 L 2.4375 -0.875 L 2.296875 -0.875 L 2 -0.90625 L 1.6875 -1.03125 L 1.515625 -1.1875 L 1.453125 -1.265625 L 1.359375 -1.484375 L 1.3125 -1.640625 L 1.28125 -1.828125 L 1.265625 -2.15625 L 1.3125 -2.375 L 1.40625 -2.578125 L 1.578125 -2.859375 L 1.78125 -3 L 1.875 -3.046875 L 1.984375 -3.0625 L 2.078125 -3.109375 L 2.421875 -3.109375 L 2.640625 -3.0625 L 2.75 -3.015625 L 2.859375 -2.9375 L 2.921875 -2.859375 L 3 -2.765625 L 3.125 -2.671875 L 3.25 -2.625 L 3.4375 -2.625 L 3.609375 -2.640625 L 3.875 -2.625 L 4.015625 -2.6875 L 4.0625 -2.78125 L 3.96875 -3.015625 L 3.921875 -3.125 L 3.703125 -3.453125 L 3.5625 -3.5625 L 3.484375 -3.640625 L 3.390625 -3.71875 L 3 -3.921875 L 2.875 -3.953125 L 2.609375 -4.015625 L 2.078125 -4.046875 L 1.96875 -4.03125 L 1.859375 -4 L 1.75 -4 L 1.3125 -3.84375 L 1 -3.640625 L 0.75 -3.421875 L 0.671875 -3.328125 L 0.59375 -3.25 L 0.53125 -3.15625 L 0.3125 -2.734375 L 0.21875 -2.171875 L 0.21875 -1.984375 L 0.234375 -1.578125 L 0.40625 -1.046875 L 0.5 -0.859375 L 0.640625 -0.65625 L 0.859375 -0.421875 L 1.046875 -0.296875 L 1.4375 -0.0625 L 1.546875 -0.03125 L 1.859375 0.015625 Z M 1.984375 0.0625 "/></g></g></g><g fill="#000000" fill-opacity="1"><g transform="translate(107.583975, 31.760449)"><g/></g></g><g fill="#000000" fill-opacity="1"><g transform="translate(109.825401, 31.760449)"><g><path d="M 1.984375 0.015625 L 2.796875 0 L 2.921875 -0.046875 L 2.984375 -0.171875 L 2.984375 -0.734375 L 2.921875 -0.859375 L 2.796875 -0.90625 L 2.671875 -0.890625 L 2.5625 -0.90625 L 2.265625 -0.921875 L 2.078125 -0.890625 L 1.96875 -0.90625 L 1.84375 -0.90625 L 1.734375 -0.921875 L 1.609375 -0.90625 L 1.484375 -0.96875 L 1.4375 -1.0625 L 1.4375 -1.421875 L 1.5 -1.546875 L 1.59375 -1.609375 L 1.765625 -1.609375 L 1.953125 -1.59375 L 2.171875 -1.609375 L 2.640625 -1.609375 L 2.765625 -1.65625 L 2.796875 -1.765625 L 2.8125 -2.28125 L 2.765625 -2.4375 L 2.625 -2.515625 L 2.296875 -2.515625 L 2.171875 -2.5 L 1.9375 -2.515625 L 1.609375 -2.515625 L 1.484375 -2.5625 L 1.4375 -2.734375 L 1.4375 -2.921875 L 1.484375 -3.015625 L 1.609375 -3.0625 L 1.71875 -3.0625 L 1.828125 -3.078125 L 2.75 -3.078125 L 2.875 -3.140625 L 2.9375 -3.25 L 2.921875 -3.359375 L 2.9375 -3.484375 L 2.921875 -3.828125 L 2.875 -3.921875 L 2.75 -3.96875 L 2.640625 -3.96875 L 2.53125 -4 L 2.0625 -4 L 1.9375 -3.984375 L 1.828125 -4 L 1.734375 -3.984375 L 1.625 -4 L 1.15625 -3.984375 L 1.03125 -4 L 0.921875 -3.984375 L 0.828125 -4 L 0.71875 -3.984375 L 0.59375 -3.984375 L 0.484375 -3.9375 L 0.421875 -3.828125 L 0.421875 -3.609375 L 0.40625 -3.375 L 0.421875 -3.25 L 0.421875 -2.6875 L 0.4375 -2.5625 L 0.421875 -2.453125 L 0.421875 -1.984375 L 0.4375 -1.890625 L 0.421875 -0.96875 L 0.421875 -0.859375 L 0.4375 -0.734375 L 0.421875 -0.34375 L 0.421875 -0.21875 L 0.46875 -0.0625 L 0.640625 0 L 1.0625 0.015625 L 1.1875 0 L 1.28125 0 L 1.515625 -0.015625 L 1.625 0.015625 L 1.75 0.015625 L 1.875 0 Z M 1.984375 0.015625 "/></g></g></g><g fill="#000000" fill-opacity="1"><g transform="translate(113.788864, 31.760449)"><g><path d="M 1.53125 0.046875 L 1.984375 0.0625 L 2.09375 0.046875 L 2.21875 0.015625 L 2.328125 0 L 2.4375 -0.046875 L 2.546875 -0.046875 L 2.65625 -0.109375 L 3.046875 -0.34375 L 3.203125 -0.5 L 3.265625 -0.59375 L 3.328125 -0.71875 L 3.390625 -0.90625 L 3.421875 -1.203125 L 3.421875 -1.375 L 3.328125 -1.71875 L 3.265625 -1.796875 L 3.125 -1.96875 L 3.015625 -2.0625 L 2.921875 -2.109375 L 2.828125 -2.171875 L 2.375 -2.3125 L 2.265625 -2.328125 L 2.15625 -2.328125 L 2.03125 -2.359375 L 1.859375 -2.359375 L 1.5625 -2.421875 L 1.359375 -2.515625 L 1.265625 -2.59375 L 1.25 -2.765625 L 1.265625 -2.921875 L 1.34375 -3 L 1.421875 -3.0625 L 1.515625 -3.109375 L 1.625 -3.140625 L 1.796875 -3.140625 L 1.984375 -3.125 L 2.09375 -3.09375 L 2.28125 -2.9375 L 2.375 -2.828125 L 2.5 -2.75 L 2.765625 -2.78125 L 2.921875 -2.765625 L 3.03125 -2.765625 L 3.140625 -2.75 L 3.25 -2.828125 L 3.296875 -2.9375 L 3.265625 -3.046875 L 3.25 -3.140625 L 3.09375 -3.4375 L 2.96875 -3.609375 L 2.59375 -3.875 L 2.28125 -3.984375 L 2.046875 -4.03125 L 1.609375 -4.046875 L 1.484375 -4.015625 L 1.265625 -3.984375 L 1.0625 -3.921875 L 0.859375 -3.796875 L 0.59375 -3.609375 L 0.390625 -3.34375 L 0.28125 -3.03125 L 0.265625 -2.75 L 0.28125 -2.578125 L 0.3125 -2.34375 L 0.40625 -2.15625 L 0.609375 -1.890625 L 1 -1.671875 L 1.203125 -1.609375 L 2.109375 -1.5 L 2.3125 -1.40625 L 2.390625 -1.34375 L 2.421875 -1.203125 L 2.375 -1.0625 L 2.296875 -0.96875 L 2.109375 -0.890625 L 1.921875 -0.875 L 1.828125 -0.859375 L 1.53125 -0.890625 L 1.4375 -0.9375 L 1.34375 -1 L 1.15625 -1.203125 L 1.03125 -1.25 L 0.9375 -1.234375 L 0.828125 -1.25 L 0.390625 -1.234375 L 0.28125 -1.1875 L 0.234375 -1.0625 L 0.25 -0.953125 L 0.3125 -0.734375 L 0.421875 -0.53125 L 0.5 -0.453125 L 0.578125 -0.359375 L 0.78125 -0.234375 L 0.859375 -0.15625 L 1.078125 -0.0625 L 1.296875 0.015625 Z M 1.53125 0.046875 "/></g></g></g><g fill="#000000" fill-opacity="1"><g transform="translate(118.122964, 31.760449)"><g><path d="M 1.484375 0.015625 L 1.875 0 L 2.03125 -0.0625 L 2.09375 -0.21875 L 2.109375 -0.515625 L 2.09375 -0.734375 L 2.109375 -0.84375 L 2.09375 -1.078125 L 2.109375 -1.1875 L 2.09375 -1.3125 L 2.109375 -2.21875 L 2.09375 -2.34375 L 2.109375 -2.84375 L 2.15625 -3.015625 L 2.265625 -3.078125 L 2.484375 -3.09375 L 2.6875 -3.0625 L 2.8125 -3.078125 L 2.921875 -3.078125 L 3.015625 -3.140625 L 3.078125 -3.265625 L 3.078125 -3.796875 L 3.015625 -3.921875 L 2.921875 -4 L 2.453125 -4 L 2.328125 -3.984375 L 2.21875 -4 L 1.765625 -3.96875 L 1.640625 -4 L 1.546875 -4 L 1.421875 -3.984375 L 1.296875 -4 L 1.1875 -3.96875 L 0.859375 -4 L 0.671875 -3.96875 L 0.28125 -4 L 0.171875 -3.9375 L 0.109375 -3.8125 L 0.109375 -3.703125 L 0.09375 -3.40625 L 0.109375 -3.234375 L 0.15625 -3.125 L 0.265625 -3.078125 L 0.921875 -3.078125 L 1.03125 -3.015625 L 1.09375 -2.90625 L 1.078125 -2.71875 L 1.09375 -2.5625 L 1.078125 -2.4375 L 1.09375 -2.328125 L 1.078125 -2.15625 L 1.09375 -1.3125 L 1.078125 -1.203125 L 1.078125 -0.734375 L 1.09375 -0.609375 L 1.078125 -0.28125 L 1.078125 -0.171875 L 1.140625 -0.046875 L 1.3125 0 Z M 1.484375 0.015625 "/></g></g></g><g fill="#000000" fill-opacity="1"><g transform="translate(122.006597, 31.760449)"><g><path d="M 0.71875 0.015625 L 0.859375 0.03125 L 0.921875 0.015625 L 0.984375 0.015625 L 1.046875 -0.015625 L 1.125 -0.0625 L 1.15625 -0.078125 L 1.21875 -0.125 L 1.265625 -0.1875 L 1.3125 -0.234375 L 1.359375 -0.421875 L 1.359375 -0.546875 L 1.328125 -0.671875 L 1.296875 -0.75 L 1.25 -0.8125 L 1.21875 -0.84375 L 1.171875 -0.90625 L 1.109375 -0.9375 L 1.0625 -0.96875 L 1 -0.984375 L 0.921875 -1.015625 L 0.71875 -1.015625 L 0.53125 -0.96875 L 0.484375 -0.9375 L 0.359375 -0.84375 L 0.28125 -0.75 L 0.25 -0.6875 L 0.234375 -0.625 L 0.234375 -0.359375 L 0.25 -0.296875 L 0.28125 -0.234375 L 0.3125 -0.1875 L 0.375 -0.125 L 0.40625 -0.078125 L 0.53125 -0.015625 L 0.65625 0.015625 Z M 0.71875 0.015625 "/></g></g></g><g fill="#000000" fill-opacity="1"><g transform="translate(124.322149, 31.760449)"><g/></g></g><g fill="#000000" fill-opacity="1"><g transform="translate(126.563576, 31.760449)"><g><path d="M 1.5 0.859375 L 1.640625 0.890625 L 1.75 0.859375 L 1.828125 0.796875 L 1.984375 0.625 L 2.0625 0.578125 L 2.09375 0.4375 L 2.046875 0.34375 L 1.984375 0.25 L 1.890625 0.1875 L 1.625 -0.1875 L 1.421875 -0.703125 L 1.28125 -1.375 L 1.28125 -1.484375 L 1.25 -1.59375 L 1.25 -1.6875 L 1.234375 -1.8125 L 1.265625 -2.609375 L 1.3125 -2.703125 L 1.359375 -3.0625 L 1.40625 -3.15625 L 1.421875 -3.28125 L 1.46875 -3.375 L 1.5 -3.484375 L 1.59375 -3.703125 L 1.640625 -3.765625 L 1.75 -3.96875 L 1.890625 -4.15625 L 2.046875 -4.296875 L 2.09375 -4.421875 L 2.0625 -4.546875 L 1.984375 -4.609375 L 1.84375 -4.765625 L 1.765625 -4.84375 L 1.640625 -4.875 L 1.46875 -4.796875 L 1.328125 -4.671875 L 1.25 -4.625 L 0.953125 -4.28125 L 0.75 -3.984375 L 0.546875 -3.578125 L 0.359375 -3.046875 L 0.34375 -2.953125 L 0.296875 -2.828125 L 0.265625 -2.5 L 0.234375 -2.40625 L 0.234375 -1.703125 L 0.25 -1.59375 L 0.25 -1.484375 L 0.28125 -1.359375 L 0.296875 -1.234375 L 0.375 -0.90625 L 0.390625 -0.796875 L 0.421875 -0.671875 L 0.59375 -0.265625 L 0.75 0.03125 L 0.890625 0.21875 L 0.953125 0.3125 L 1.421875 0.796875 Z M 1.5 0.859375 "/></g></g></g><g fill="#000000" fill-opacity="1"><g transform="translate(129.295385, 31.760449)"><g><path d="M 3.359375 -0.09375 L 3.515625 0 L 3.671875 0.015625 L 3.796875 -0.03125 L 3.859375 -0.140625 L 3.875 -2.21875 L 3.859375 -2.328125 L 3.859375 -2.890625 L 3.875 -3.015625 L 3.859375 -3.8125 L 3.796875 -3.921875 L 3.6875 -4 L 2.984375 -3.984375 L 2.875 -3.921875 L 2.8125 -3.796875 L 2.796875 -3.6875 L 2.8125 -3.59375 L 2.796875 -3.359375 L 2.8125 -3.234375 L 2.796875 -2.203125 L 2.765625 -2.109375 L 2.6875 -2.15625 L 2.28125 -2.5625 L 2.109375 -2.6875 L 1 -3.8125 L 0.90625 -3.890625 L 0.78125 -3.953125 L 0.609375 -4 L 0.46875 -3.9375 L 0.421875 -3.828125 L 0.421875 -1.765625 L 0.40625 -1.671875 L 0.421875 -0.734375 L 0.40625 -0.625 L 0.421875 -0.140625 L 0.46875 -0.046875 L 0.59375 0 L 0.828125 0.015625 L 0.953125 0 L 1.171875 0.015625 L 1.296875 0.015625 L 1.40625 -0.046875 L 1.46875 -0.21875 L 1.46875 -1.671875 L 1.484375 -1.78125 L 1.515625 -1.875 L 1.59375 -1.84375 L 1.671875 -1.75 L 2.078125 -1.359375 L 2.15625 -1.28125 L 2.25 -1.21875 L 3.125 -0.34375 L 3.28125 -0.171875 Z M 3.359375 -0.09375 "/></g></g></g><g fill="#000000" fill-opacity="1"><g transform="translate(134.290927, 31.760449)"><g><path d="M 0.59375 0.015625 L 0.703125 0 L 0.921875 0.015625 L 1.0625 0 L 1.234375 0 L 1.390625 -0.0625 L 1.46875 -0.171875 L 1.453125 -0.765625 L 1.46875 -0.9375 L 1.453125 -1.0625 L 1.46875 -1.265625 L 1.453125 -1.390625 L 1.453125 -1.609375 L 1.515625 -1.671875 L 1.5625 -1.640625 L 1.65625 -1.5625 L 1.96875 -1.25 L 2.03125 -1.15625 L 2.1875 -1.015625 L 2.3125 -0.921875 L 2.4375 -0.921875 L 2.546875 -1 L 2.625 -1.09375 L 2.703125 -1.15625 L 2.859375 -1.34375 L 2.9375 -1.40625 L 3.171875 -1.640625 L 3.25 -1.671875 L 3.296875 -1.59375 L 3.28125 -1.28125 L 3.296875 -1.046875 L 3.28125 -0.828125 L 3.296875 -0.609375 L 3.28125 -0.515625 L 3.296875 -0.25 L 3.296875 -0.171875 L 3.34375 -0.046875 L 3.46875 0 L 4.15625 0.015625 L 4.265625 -0.046875 L 4.34375 -0.21875 L 4.328125 -0.5 L 4.328125 -3.8125 L 4.265625 -3.9375 L 4.140625 -4 L 3.984375 -3.953125 L 3.859375 -3.875 L 3.625 -3.625 L 3.546875 -3.53125 L 3.484375 -3.46875 L 3.40625 -3.359375 L 2.890625 -2.859375 L 2.828125 -2.75 L 2.46875 -2.40625 L 2.375 -2.328125 L 2.25 -2.375 L 2.1875 -2.46875 L 2.109375 -2.5625 L 2 -2.6875 L 1.875 -2.796875 L 1.359375 -3.375 L 1.28125 -3.4375 L 1.125 -3.625 L 1.03125 -3.703125 L 0.890625 -3.859375 L 0.765625 -3.953125 L 0.59375 -4 L 0.46875 -3.9375 L 0.40625 -3.828125 L 0.421875 -3.46875 L 0.40625 -3.25 L 0.421875 -3.140625 L 0.421875 -2.125 L 0.40625 -1.546875 L 0.421875 -1.4375 L 0.421875 -0.171875 L 0.484375 -0.0625 Z M 0.59375 0.015625 "/></g></g></g><g fill="#000000" fill-opacity="1"><g transform="translate(139.754043, 31.760449)"><g><path d="M 1.984375 0.046875 L 2.265625 0.0625 L 2.671875 0.046875 L 3 -0.03125 L 3.109375 -0.078125 L 3.234375 -0.125 L 3.328125 -0.171875 L 3.609375 -0.375 L 3.765625 -0.53125 L 3.890625 -0.703125 L 4.015625 -0.90625 L 4.15625 -1.34375 L 4.125 -1.4375 L 4.015625 -1.515625 L 3.703125 -1.5 L 3.578125 -1.515625 L 3.46875 -1.5 L 3.359375 -1.515625 L 3.21875 -1.4375 L 3.125 -1.359375 L 3.078125 -1.25 L 2.9375 -1.09375 L 2.859375 -1.015625 L 2.765625 -0.984375 L 2.5625 -0.875 L 2.265625 -0.859375 L 2.09375 -0.875 L 1.890625 -0.953125 L 1.6875 -1.046875 L 1.53125 -1.203125 L 1.40625 -1.390625 L 1.359375 -1.515625 L 1.328125 -1.59375 L 1.296875 -1.6875 L 1.28125 -1.8125 L 1.28125 -2.171875 L 1.3125 -2.390625 L 1.40625 -2.59375 L 1.453125 -2.703125 L 1.59375 -2.875 L 1.734375 -2.984375 L 1.890625 -3.0625 L 2.265625 -3.109375 L 2.515625 -3.109375 L 2.6875 -3.046875 L 2.796875 -3.015625 L 2.875 -2.953125 L 3.046875 -2.78125 L 3.109375 -2.703125 L 3.203125 -2.59375 L 3.34375 -2.53125 L 3.671875 -2.53125 L 3.84375 -2.515625 L 4.015625 -2.53125 L 4.109375 -2.578125 L 4.140625 -2.703125 L 4.109375 -2.828125 L 4.078125 -2.921875 L 4.03125 -3.046875 L 3.96875 -3.140625 L 3.921875 -3.234375 L 3.84375 -3.328125 L 3.78125 -3.4375 L 3.625 -3.59375 L 3.234375 -3.84375 L 2.6875 -4.03125 L 2.578125 -4.03125 L 2.46875 -4.046875 L 2.109375 -4.0625 L 1.5625 -3.953125 L 1.140625 -3.75 L 0.96875 -3.625 L 0.71875 -3.40625 L 0.578125 -3.203125 L 0.46875 -3.046875 L 0.3125 -2.71875 L 0.265625 -2.484375 L 0.203125 -2 L 0.234375 -1.578125 L 0.3125 -1.25 L 0.5625 -0.765625 L 0.796875 -0.5 L 1.0625 -0.28125 L 1.296875 -0.15625 L 1.5625 -0.046875 L 1.65625 -0.015625 L 1.78125 0.015625 L 1.875 0.046875 Z M 1.984375 0.046875 "/></g></g></g><g fill="#000000" fill-opacity="1"><g transform="translate(144.800902, 31.760449)"><g><path d="M 0.421875 0.859375 L 0.53125 0.890625 L 0.65625 0.859375 L 0.75 0.78125 L 0.828125 0.734375 L 0.90625 0.640625 L 1.015625 0.578125 L 1.078125 0.484375 L 1.140625 0.375 L 1.21875 0.3125 L 1.46875 -0.078125 L 1.515625 -0.1875 L 1.578125 -0.265625 L 1.625 -0.390625 L 1.75 -0.6875 L 1.859375 -1.140625 L 1.9375 -1.984375 L 1.921875 -2.515625 L 1.875 -2.71875 L 1.859375 -2.84375 L 1.78125 -3.1875 L 1.734375 -3.28125 L 1.703125 -3.40625 L 1.53125 -3.796875 L 1.28125 -4.1875 L 1.078125 -4.453125 L 0.828125 -4.703125 L 0.75 -4.765625 L 0.671875 -4.84375 L 0.53125 -4.890625 L 0.421875 -4.859375 L 0.34375 -4.75 L 0.25 -4.6875 L 0.140625 -4.5625 L 0.078125 -4.4375 L 0.125 -4.3125 L 0.203125 -4.21875 L 0.359375 -4.0625 L 0.40625 -3.96875 L 0.46875 -3.890625 L 0.53125 -3.78125 L 0.59375 -3.6875 L 0.8125 -3.0625 L 0.84375 -2.828125 L 0.875 -2.734375 L 0.921875 -2.28125 L 0.921875 -1.828125 L 0.890625 -1.375 L 0.75 -0.703125 L 0.703125 -0.625 L 0.671875 -0.5 L 0.59375 -0.296875 L 0.40625 0 L 0.34375 0.078125 L 0.28125 0.171875 L 0.109375 0.328125 L 0.078125 0.4375 L 0.109375 0.5625 L 0.1875 0.625 Z M 0.421875 0.859375 "/></g></g></g><path fill="#000000" d="M 16.996094 20.824219 L 16.996094 18.601562 C 18.5 17.960938 20.054688 17.476562 21.660156 17.148438 C 23.261719 16.820312 24.882812 16.65625 26.519531 16.65625 C 28.15625 16.65625 29.777344 16.820312 31.382812 17.148438 C 32.984375 17.476562 34.539062 17.960938 36.046875 18.601562 L 36.046875 20.53125 L 42.511719 19.339844 L 38.375 19.363281 L 38.375 17.09375 L 37.460938 16.679688 C 35.742188 15.902344 33.957031 15.316406 32.113281 14.921875 C 30.269531 14.523438 28.402344 14.328125 26.515625 14.328125 C 24.628906 14.328125 22.761719 14.523438 20.917969 14.921875 C 19.074219 15.316406 17.289062 15.902344 15.570312 16.679688 L 14.65625 17.09375 L 14.65625 19.363281 L 9.910156 19.339844 Z M 16.996094 20.824219 " fill-opacity="1" fill-rule="nonzero"/><g clip-path="url(#11c0b94cf7)"><path fill="#000000" d="M 34.5625 28.285156 C 34.347656 28.757812 34.109375 29.21875 33.851562 29.671875 C 32.386719 32.207031 30.390625 34.207031 27.859375 35.667969 L 26.519531 36.441406 L 25.183594 35.667969 C 22.648438 34.207031 20.648438 32.207031 19.183594 29.671875 L 19.066406 29.464844 C 18.6875 29.101562 18.339844 28.710938 18.019531 28.292969 L 15.945312 28.292969 C 16.71875 30.273438 17.796875 32.066406 19.179688 33.675781 C 20.5625 35.289062 22.175781 36.625 24.015625 37.6875 L 26.519531 39.128906 L 29.027344 37.6875 C 30.867188 36.625 32.480469 35.285156 33.867188 33.675781 C 35.25 32.0625 36.332031 30.265625 37.105469 28.285156 Z M 34.5625 28.285156 " fill-opacity="1" fill-rule="nonzero"/></g><g clip-path="url(#eeff537520)"><path fill="#da880a" d="M 48.125 22.382812 C 49.578125 22.292969 51.675781 18.433594 51.675781 18.433594 L 33.460938 21.773438 C 32.785156 21.898438 32.125 21.835938 31.484375 21.589844 L 27.597656 20.09375 C 27.242188 19.957031 26.875 19.914062 26.496094 19.964844 C 26.121094 20.019531 25.78125 20.160156 25.472656 20.386719 L 21.914062 23.0625 C 21.847656 23.113281 21.8125 23.179688 21.8125 23.265625 C 21.8125 23.351562 21.847656 23.421875 21.914062 23.472656 C 22.246094 23.71875 22.621094 23.84375 23.035156 23.84375 C 23.449219 23.84375 23.824219 23.71875 24.15625 23.472656 L 25.613281 22.378906 C 25.972656 22.109375 26.378906 21.972656 26.828125 21.972656 C 27.277344 21.972656 27.683594 22.109375 28.046875 22.378906 L 33.214844 26.269531 C 33.554688 26.515625 33.761719 26.847656 33.832031 27.261719 L 33.832031 27.273438 C 33.867188 27.449219 33.976562 27.535156 34.152344 27.53125 C 34.152344 27.53125 40.230469 27.8125 42.21875 28.03125 C 43.179688 28.136719 45.226562 26.191406 45.226562 26.191406 L 40.125 25.324219 C 42.109375 25.472656 44.675781 25.644531 46.015625 25.648438 C 47.160156 25.648438 49.300781 22.980469 49.300781 22.980469 L 37.152344 23.0625 C 37.152344 23.0625 45.113281 22.5625 48.125 22.382812 Z M 48.125 22.382812 " fill-opacity="1" fill-rule="nonzero"/></g><g clip-path="url(#f221f0fe65)"><path fill="#da880a" d="M 33.101562 27.421875 C 33.066406 27.191406 32.957031 27.007812 32.765625 26.871094 L 27.585938 22.976562 C 27.359375 22.808594 27.101562 22.722656 26.816406 22.722656 C 26.535156 22.722656 26.277344 22.808594 26.050781 22.976562 L 24.59375 24.070312 C 24.367188 24.238281 24.121094 24.367188 23.851562 24.457031 C 23.585938 24.546875 23.308594 24.589844 23.027344 24.589844 C 22.742188 24.589844 22.46875 24.546875 22.199219 24.457031 C 21.929688 24.367188 21.683594 24.238281 21.457031 24.070312 C 21.175781 23.859375 21.042969 23.582031 21.054688 23.234375 C 21.070312 22.902344 21.214844 22.636719 21.484375 22.441406 L 23.992188 20.558594 C 24.105469 20.492188 24.136719 20.398438 24.074219 20.28125 C 24.015625 20.160156 23.925781 20.125 23.804688 20.175781 L 19.683594 21.617188 C 19.042969 21.839844 18.386719 21.882812 17.722656 21.742188 L 16.183594 21.441406 L 16.183594 21.433594 C 16.125 21.421875 16.070312 21.414062 16.03125 21.40625 L 0.785156 18.433594 C 0.785156 18.433594 2.882812 22.292969 4.335938 22.382812 C 7.34375 22.5625 15.304688 23.078125 15.304688 23.078125 L 3.15625 22.996094 C 3.15625 22.996094 5.296875 25.664062 6.445312 25.660156 C 7.78125 25.660156 10.347656 25.496094 12.332031 25.335938 L 7.230469 26.207031 C 7.230469 26.207031 9.28125 28.148438 10.238281 28.046875 C 11.550781 27.898438 18.078125 27.542969 18.09375 27.542969 C 18.34375 27.542969 18.425781 27.582031 18.503906 27.683594 C 18.925781 28.269531 19.410156 28.792969 19.953125 29.261719 C 20.5 29.730469 21.09375 30.128906 21.734375 30.457031 C 22.371094 30.785156 23.042969 31.035156 23.742188 31.203125 C 24.441406 31.371094 25.148438 31.457031 25.867188 31.457031 L 25.894531 31.457031 C 26.152344 31.460938 26.320312 31.339844 26.394531 31.09375 C 26.476562 30.855469 26.421875 30.660156 26.226562 30.5 L 25.480469 29.9375 C 25.398438 29.878906 25.347656 29.796875 25.328125 29.699219 C 25.308594 29.597656 25.324219 29.503906 25.378906 29.417969 C 25.4375 29.328125 25.519531 29.277344 25.625 29.257812 C 25.730469 29.242188 25.828125 29.265625 25.914062 29.328125 L 26.652344 29.882812 L 26.6875 29.910156 L 27.949219 30.859375 C 28.082031 30.960938 28.234375 31.011719 28.40625 31.011719 C 28.574219 31.011719 28.726562 30.960938 28.863281 30.859375 C 29.007812 30.753906 29.105469 30.613281 29.148438 30.4375 C 29.238281 30.109375 29.144531 29.84375 28.875 29.636719 L 27.355469 28.5 C 27.1875 28.378906 27.144531 28.222656 27.234375 28.03125 C 27.285156 27.925781 27.367188 27.855469 27.480469 27.828125 C 27.597656 27.800781 27.703125 27.824219 27.796875 27.894531 L 29.316406 29.035156 L 30.164062 29.671875 C 30.296875 29.773438 30.445312 29.828125 30.609375 29.835938 C 30.777344 29.84375 30.933594 29.804688 31.074219 29.714844 C 31.175781 29.644531 31.257812 29.558594 31.316406 29.449219 C 31.375 29.34375 31.410156 29.226562 31.414062 29.105469 C 31.417969 28.980469 31.394531 28.863281 31.339844 28.753906 C 31.289062 28.640625 31.210938 28.546875 31.113281 28.472656 L 29.203125 27.035156 C 29.035156 26.910156 28.992188 26.753906 29.078125 26.5625 C 29.128906 26.457031 29.214844 26.390625 29.328125 26.363281 C 29.441406 26.332031 29.546875 26.355469 29.640625 26.425781 L 31.558594 27.867188 L 31.566406 27.867188 L 31.84375 28.078125 C 32.011719 28.203125 32.199219 28.253906 32.40625 28.234375 C 32.617188 28.210938 32.789062 28.125 32.925781 27.96875 C 33.058594 27.808594 33.117188 27.628906 33.101562 27.421875 Z M 33.101562 27.421875 " fill-opacity="1" fill-rule="nonzero"/></g></svg>